<svg xmlns="http://www.w3.org/2000/svg" version="1.1" xmlns:xlink="http://www.w3.org/1999/xlink" width="512" height="512" x="0" y="0" viewBox="0 0 64 64" style="enable-background:new 0 0 512 512" xml:space="preserve" class=""><g><g data-name="Location_Color Line Create Outline"><g data-name="19_Flag"><path fill="#0f67fe" d="M49 27H15l8-13-8-13h34z" opacity="1" data-original="#db4437" class=""></path><path fill="#255ebb" d="M46 1v1a22 22 0 0 1-22 22h-7.154L15 27h34V1z" opacity="1" data-original="#c62e26" class=""></path><path fill="#252526" d="M49 28H33a1 1 0 0 1 0-2h15V2H16.79l7.062 11.476a1 1 0 0 1 0 1.048L16.79 26H27a1 1 0 0 1 0 2H15a1 1 0 0 1-.852-1.524L21.826 14 14.148 1.524A1 1 0 0 1 15 0h34a1 1 0 0 1 1 1v26a1 1 0 0 1-1 1z" opacity="1" data-original="#252526"></path><path fill="#e6e6e6" d="m49 57-2 6-2-6V1h4z" opacity="1" data-original="#e6e6e6"></path><path fill="#bbbcbb" d="M47 1v62l2-6V1z" opacity="1" data-original="#bbbcbb"></path><path fill="#252526" d="M47 64a1 1 0 0 1-.949-.684l-2-6A1 1 0 0 1 44 57V1a1 1 0 0 1 1-1h4a1 1 0 0 1 1 1v56a1 1 0 0 1-.051.316l-2 6A1 1 0 0 1 47 64zm-1-7.162 1 3 1-3V2h-2z" opacity="1" data-original="#252526"></path></g></g></g></svg>