<?xml version="1.0" encoding="UTF-8" standalone="no"?>
<!-- Created with Inkscape (http://www.inkscape.org/) -->

<svg
   version="1.1"
   id="svg1536"
   xml:space="preserve"
   width="682.66669"
   height="682.66669"
   viewBox="0 0 682.66669 682.66669"
   xmlns="http://www.w3.org/2000/svg"><defs
     id="defs1540"><clipPath
       clipPathUnits="userSpaceOnUse"
       id="clipPath1550"><path
         d="M 0,512 H 512 V 0 H 0 Z"
         id="path1548" /></clipPath></defs><g
     id="g1542"
     transform="matrix(1.3333333,0,0,-1.3333333,0,682.66667)"><g
       id="g1544"><g
         id="g1546"
         clip-path="url(#clipPath1550)"><g
           id="g1552"
           transform="translate(288.3623,321.6084)"><path
             d="m 0,0 h -64.725 c -9.735,0 -17.627,-7.892 -17.627,-17.627 v -64.725 c 0,-9.734 7.892,-17.627 17.627,-17.627 H 0 c 9.735,0 17.627,7.893 17.627,17.627 v 64.725 C 17.627,-7.892 9.735,0 0,0 Z"
             style="fill:none;stroke:#000000;stroke-width:15;stroke-linecap:round;stroke-linejoin:round;stroke-miterlimit:10;stroke-dasharray:none;stroke-opacity:1"
             id="path1554" /></g><g
           id="g1556"
           transform="translate(184.9766,469.4854)"><path
             d="M 0,0 V -13.647"
             style="fill:none;stroke:#000000;stroke-width:15;stroke-linecap:round;stroke-linejoin:round;stroke-miterlimit:10;stroke-dasharray:none;stroke-opacity:1"
             id="path1558" /></g><g
           id="g1560"
           transform="translate(327.0234,469.4854)"><path
             d="M 0,0 V -13.647"
             style="fill:none;stroke:#000000;stroke-width:15;stroke-linecap:round;stroke-linejoin:round;stroke-miterlimit:10;stroke-dasharray:none;stroke-opacity:1"
             id="path1562" /></g><g
           id="g1564"
           transform="translate(237.2754,456.2441)"><path
             d="m 0,0 c 4.553,-5.225 11.25,-8.531 18.725,-8.531 7.474,0 14.171,3.306 18.724,8.531"
             style="fill:none;stroke:#000000;stroke-width:15;stroke-linecap:round;stroke-linejoin:round;stroke-miterlimit:10;stroke-dasharray:none;stroke-opacity:1"
             id="path1566" /></g><g
           id="g1568"
           transform="translate(240.2139,160.8179)"><path
             d="m 0,0 h -55.384 c -5.315,0 -9.625,-4.309 -9.625,-9.625 v -30.298 c 0,-5.316 4.31,-9.625 9.625,-9.625 H 0 c 5.315,0 9.625,4.309 9.625,9.625 V -9.625 C 9.625,-4.309 5.315,0 0,0 Z"
             style="fill:none;stroke:#000000;stroke-width:15;stroke-linecap:round;stroke-linejoin:round;stroke-miterlimit:10;stroke-dasharray:none;stroke-opacity:1"
             id="path1570" /></g><g
           id="g1572"
           transform="translate(364.082,192.8516)"><path
             d="m 0,0 h -43.324 c -5.317,0 -9.625,-4.31 -9.625,-9.625 v -18.941 c 0,-5.316 4.308,-9.625 9.625,-9.625 H 0 c 5.315,0 9.625,4.309 9.625,9.625 V -9.625 C 9.625,-4.31 5.315,0 0,0 Z"
             style="fill:none;stroke:#000000;stroke-width:15;stroke-linecap:round;stroke-linejoin:round;stroke-miterlimit:10;stroke-dasharray:none;stroke-opacity:1"
             id="path1574" /></g><g
           id="g1576"
           transform="translate(227.6729,387.5864)"><path
             d="m 0,0 h -36.925 c -5.316,0 -9.625,-4.309 -9.625,-9.625 v -15.036 c 0,-5.316 4.309,-9.625 9.625,-9.625 H 0 c 5.315,0 9.625,4.309 9.625,9.625 V -9.625 C 9.625,-4.309 5.315,0 0,0 Z"
             style="fill:none;stroke:#000000;stroke-width:15;stroke-linecap:round;stroke-linejoin:round;stroke-miterlimit:10;stroke-dasharray:none;stroke-opacity:1"
             id="path1578" /></g><g
           id="g1580"
           transform="translate(374.6123,504.5)"><path
             d="m 0,0 h -237.225 c -8.956,0 -16.215,-7.26 -16.215,-16.215 v -50.891 c 0,-8.956 7.259,-16.216 16.215,-16.216 H 0 c 8.956,0 16.216,7.26 16.216,16.216 v 50.891 C 16.216,-7.26 8.956,0 0,0 Z"
             style="fill:none;stroke:#000000;stroke-width:15;stroke-linecap:round;stroke-linejoin:round;stroke-miterlimit:10;stroke-dasharray:none;stroke-opacity:1"
             id="path1582" /></g><g
           id="g1584"
           transform="translate(156.1777,229.7251)"><path
             d="m 0,0 v -30.302 c 0,-5.316 -4.312,-9.629 -9.629,-9.629 h -59.52 c 4.564,17.162 9.809,33.401 15.146,49.55 H -9.629 C -4.312,9.619 0,5.316 0,0 Z"
             style="fill:none;stroke:#000000;stroke-width:15;stroke-linecap:round;stroke-linejoin:round;stroke-miterlimit:10;stroke-dasharray:none;stroke-opacity:1"
             id="path1586" /></g><g
           id="g1588"
           transform="translate(389.0322,306.8687)"><path
             d="m 0,0 h -39.118 c -5.317,0 -9.629,4.303 -9.629,9.619 v 30.302 c 0,5.316 4.312,9.619 9.629,9.619 H -9.97 C -7.452,31.776 -3.992,15.467 0,0 Z"
             style="fill:none;stroke:#000000;stroke-width:15;stroke-linecap:round;stroke-linejoin:round;stroke-miterlimit:10;stroke-dasharray:none;stroke-opacity:1"
             id="path1590" /></g><g
           id="g1592"
           transform="translate(430.6836,165.96)"><path
             d="M 0,0 C -10.817,51.06 -28.94,91.684 -41.651,140.909 H -80.77 c -5.315,0 -9.628,4.303 -9.628,9.619 v 30.302 c 0,5.316 4.313,9.619 9.628,9.619 h 29.149 c -2.799,19.569 -4.453,40.893 -4.453,64.766 l -0.011,0.003 h -237.197 l -0.011,-0.003 c 0,-26.826 -2.099,-50.435 -5.537,-71.961"
             style="fill:none;stroke:#000000;stroke-width:15;stroke-linecap:round;stroke-linejoin:round;stroke-miterlimit:10;stroke-dasharray:none;stroke-opacity:1"
             id="path1594" /></g><g
           id="g1596"
           transform="translate(126.1387,319.8813)"><path
             d="M 0,0 C -6.656,-29.002 -15.431,-54.671 -23.964,-80.537 H 20.41 c 5.317,0 9.629,-4.303 9.629,-9.619 v -30.302 c 0,-5.316 -4.312,-9.629 -9.629,-9.629 h -59.52 c -8.626,-32.408 -14.875,-68.146 -14.875,-113.012 l 0.017,-0.003 H 313.69 l 0.018,0.003 c 0,21.992 -1.502,41.791 -4.048,60.079"
             style="fill:none;stroke:#000000;stroke-width:15;stroke-linecap:round;stroke-linejoin:round;stroke-miterlimit:10;stroke-dasharray:none;stroke-opacity:1"
             id="path1598" /></g><g
           id="g1600"
           transform="translate(459.8711,76.7793)"><path
             d="m 0,0 h -407.742 c -8.955,0 -16.215,-7.26 -16.215,-16.215 v -36.849 c 0,-8.956 7.26,-16.215 16.215,-16.215 H 0 c 8.955,0 16.215,7.259 16.215,16.215 v 36.849 C 16.215,-7.26 8.955,0 0,0 Z"
             style="fill:none;stroke:#000000;stroke-width:15;stroke-linecap:round;stroke-linejoin:round;stroke-miterlimit:10;stroke-dasharray:none;stroke-opacity:1"
             id="path1602" /></g></g></g></g></svg>
