<svg xmlns="http://www.w3.org/2000/svg" version="1.1" xmlns:xlink="http://www.w3.org/1999/xlink" width="512" height="512" x="0" y="0" viewBox="0 0 682.667 682.667" style="enable-background:new 0 0 512 512" xml:space="preserve" class=""><g><defs><clipPath id="a" clipPathUnits="userSpaceOnUse"><path d="M0 512h512V0H0Z" fill="#000000" opacity="1" data-original="#000000"></path></clipPath></defs><g clip-path="url(#a)" transform="matrix(1.33333 0 0 -1.33333 0 682.667)"><path d="M0 0c0-137.243-111.257-248.5-248.5-248.5S-497-137.243-497 0s111.257 248.5 248.5 248.5S0 137.243 0 0" style="fill-opacity:1;fill-rule:nonzero;stroke:none" transform="translate(504.5 256)" fill="#6ccdec" data-original="#bbec6c" class="" opacity="1"></path><path d="M0 0c-5.04 0-10.04-.168-15.006-.464C115.247-8.225 218.487-116.297 218.487-248.5S115.247-488.775-15.006-496.536A252.05 252.05 0 0 1 0-497c137.242 0 248.5 111.258 248.5 248.5C248.5-111.257 137.242 0 0 0" style="fill-opacity:1;fill-rule:nonzero;stroke:none" transform="translate(256 504.5)" fill="#2e9fe6" data-original="#a2e62e" class="" opacity="1"></path><path d="M0 0c0-117.145-94.965-212.109-212.109-212.109-117.145 0-212.11 94.964-212.11 212.109 0 117.145 94.965 212.109 212.11 212.109C-94.965 212.109 0 117.145 0 0" style="fill-opacity:1;fill-rule:nonzero;stroke:none" transform="translate(468.11 256)" fill="#3798f1" data-original="#4fc123" class="" opacity="1"></path><path d="M0 0c-5.047 0-10.048-.188-15.006-.535 110.141-7.7 197.103-99.476 197.103-211.574 0-112.099-86.962-203.874-197.103-211.575 4.958-.346 9.959-.535 15.006-.535 117.145 0 212.109 94.965 212.109 212.11C212.109-94.965 117.145 0 0 0" style="fill-opacity:1;fill-rule:nonzero;stroke:none" transform="translate(256 468.11)" fill="#002ff3" data-original="#47a920" class="" opacity="1"></path><path d="m0 0-41.393 41.393c-7.953 7.953-20.847 7.953-28.8 0L-97.22 14.366c-7.952-7.952-7.952-20.846 0-28.8l69.242-69.242c14.351-14.35 37.618-14.35 51.968 0l135.4 135.4c7.952 7.953 7.952 20.847 0 28.799l-25.034 25.033c-7.952 7.953-20.846 7.953-28.799 0z" style="fill-opacity:1;fill-rule:nonzero;stroke:none" transform="translate(224.915 246.923)" fill="#60b3ff" data-original="#d1f19e" class="" opacity="1"></path><path d="m0 0 43.317-42.538 12.897 12.897-41.393 41.393c-7.953 7.953-20.847 7.953-28.8 0l-6.845-6.846C-13.744 7.256-5.635 5.635 0 0" style="fill-opacity:1;fill-rule:nonzero;stroke:none" transform="translate(168.701 276.563)" fill="#6ccdec" data-original="#bbec6c" class="" opacity="1"></path><path d="m0 0-25.033 25.033c-7.952 7.952-20.847 7.952-28.8 0l-6.472-6.471c5.826.542 11.841-1.415 16.302-5.874L-30.013 0c7.953-7.952 7.953-20.847 0-28.8l-124.169-125.798c-8.865-8.865-21.132-12.247-32.599-10.158 14.39-13.78 37.222-13.601 51.382.557L0-28.8C7.952-20.847 7.952-7.952 0 0" style="fill-opacity:1;fill-rule:nonzero;stroke:none" transform="translate(384.305 327.446)" fill="#6ccdec" data-original="#bbec6c" class="" opacity="1"></path><path d="M0 0c0-137.243-111.257-248.5-248.5-248.5S-497-137.243-497 0s111.257 248.5 248.5 248.5S0 137.243 0 0Z" style="stroke-width:15;stroke-linecap:round;stroke-linejoin:round;stroke-miterlimit:10;stroke-dasharray:none;stroke-opacity:1" transform="translate(504.5 256)" fill="none" stroke="#000000" stroke-width="15" stroke-linecap="round" stroke-linejoin="round" stroke-miterlimit="10" stroke-dasharray="none" stroke-opacity="" data-original="#000000"></path><path d="M0 0c-32.021 37.149-51.383 85.521-51.383 138.415 0 117.145 94.965 212.109 212.11 212.109 117.144 0 212.109-94.964 212.109-212.109 0-117.144-94.965-212.109-212.109-212.109-50.949 0-97.702 17.963-134.272 47.901" style="stroke-width:15;stroke-linecap:round;stroke-linejoin:round;stroke-miterlimit:10;stroke-dasharray:none;stroke-opacity:1" transform="translate(95.273 117.585)" fill="none" stroke="#000000" stroke-width="15" stroke-linecap="round" stroke-linejoin="round" stroke-miterlimit="10" stroke-dasharray="none" stroke-opacity="" data-original="#000000"></path><path d="m0 0 90.408 90.408c7.952 7.953 7.952 20.848 0 28.8L65.375 144.24c-7.952 7.953-20.847 7.953-28.8 0L-68.981 38.685l-41.393 41.392c-7.953 7.953-20.848 7.953-28.801 0l-27.026-27.026c-7.952-7.952-7.952-20.847 0-28.8l69.242-69.242c14.351-14.351 37.617-14.351 51.968 0l19.994 19.995" style="stroke-width:15;stroke-linecap:round;stroke-linejoin:round;stroke-miterlimit:10;stroke-dasharray:none;stroke-opacity:1" transform="translate(293.897 208.238)" fill="none" stroke="#000000" stroke-width="15" stroke-linecap="round" stroke-linejoin="round" stroke-miterlimit="10" stroke-dasharray="none" stroke-opacity="" data-original="#000000"></path><path d="m0 0-18.857-18.858" style="stroke-width:15;stroke-linecap:round;stroke-linejoin:round;stroke-miterlimit:10;stroke-dasharray:none;stroke-opacity:1" transform="translate(224.915 246.923)" fill="none" stroke="#000000" stroke-width="15" stroke-linecap="round" stroke-linejoin="round" stroke-miterlimit="10" stroke-dasharray="none" stroke-opacity="" data-original="#000000"></path></g></g></svg>