<?xml version="1.0" encoding="UTF-8" standalone="no"?>
<!-- Created with Inkscape (http://www.inkscape.org/) -->

<svg
   version="1.1"
   id="svg6066"
   xml:space="preserve"
   width="682.66669"
   height="682.66669"
   viewBox="0 0 682.66669 682.66669"
   xmlns="http://www.w3.org/2000/svg"><defs
     id="defs6070"><clipPath
       clipPathUnits="userSpaceOnUse"
       id="clipPath6080"><path
         d="M 0,512 H 512 V 0 H 0 Z"
         id="path6078" /></clipPath></defs><g
     id="g6072"
     transform="matrix(1.3333333,0,0,-1.3333333,0,682.66667)"><g
       id="g6074"><g
         id="g6076"
         clip-path="url(#clipPath6080)"><g
           id="g6082"
           transform="translate(504.5,256)"><path
             d="m 0,0 c 0,-137.243 -111.257,-248.5 -248.5,-248.5 -137.243,0 -248.5,111.257 -248.5,248.5 0,137.243 111.257,248.5 248.5,248.5 C -111.257,248.5 0,137.243 0,0"
             style="fill:#bbec6c;fill-opacity:1;fill-rule:nonzero;stroke:none"
             id="path6084" /></g><g
           id="g6086"
           transform="translate(256,504.5)"><path
             d="m 0,0 c -5.04,0 -10.04,-0.168 -15.006,-0.464 130.253,-7.761 233.493,-115.833 233.493,-248.036 0,-132.203 -103.24,-240.275 -233.493,-248.036 C -10.04,-496.832 -5.04,-497 0,-497 c 137.242,0 248.5,111.258 248.5,248.5 C 248.5,-111.257 137.242,0 0,0"
             style="fill:#a2e62e;fill-opacity:1;fill-rule:nonzero;stroke:none"
             id="path6088" /></g><g
           id="g6090"
           transform="translate(468.1094,256)"><path
             d="m 0,0 c 0,-117.145 -94.965,-212.109 -212.109,-212.109 -117.145,0 -212.11,94.964 -212.11,212.109 0,117.145 94.965,212.109 212.11,212.109 C -94.965,212.109 0,117.145 0,0"
             style="fill:#4fc123;fill-opacity:1;fill-rule:nonzero;stroke:none"
             id="path6092" /></g><g
           id="g6094"
           transform="translate(256,468.1094)"><path
             d="m 0,0 c -5.047,0 -10.048,-0.188 -15.006,-0.535 110.141,-7.7 197.103,-99.476 197.103,-211.574 0,-112.099 -86.962,-203.874 -197.103,-211.575 4.958,-0.346 9.959,-0.535 15.006,-0.535 117.145,0 212.109,94.965 212.109,212.11 C 212.109,-94.965 117.145,0 0,0"
             style="fill:#47a920;fill-opacity:1;fill-rule:nonzero;stroke:none"
             id="path6096" /></g><g
           id="g6098"
           transform="translate(224.915,246.9229)"><path
             d="m 0,0 -41.393,41.393 c -7.953,7.953 -20.847,7.953 -28.8,0 L -97.22,14.366 c -7.952,-7.952 -7.952,-20.846 0,-28.8 l 69.242,-69.242 c 14.351,-14.35 37.618,-14.35 51.968,0 l 135.4,135.4 c 7.952,7.953 7.952,20.847 0,28.799 l -25.034,25.033 c -7.952,7.953 -20.846,7.953 -28.799,0 z"
             style="fill:#d1f19e;fill-opacity:1;fill-rule:nonzero;stroke:none"
             id="path6100" /></g><g
           id="g6102"
           transform="translate(168.7012,276.5635)"><path
             d="m 0,0 43.317,-42.538 12.897,12.897 -41.393,41.393 c -7.953,7.953 -20.847,7.953 -28.8,0 L -20.824,4.906 C -13.744,7.256 -5.635,5.635 0,0"
             style="fill:#bbec6c;fill-opacity:1;fill-rule:nonzero;stroke:none"
             id="path6104" /></g><g
           id="g6106"
           transform="translate(384.3047,327.4463)"><path
             d="m 0,0 -25.033,25.033 c -7.952,7.952 -20.847,7.952 -28.8,0 l -6.472,-6.471 c 5.826,0.542 11.841,-1.415 16.302,-5.874 L -30.013,0 c 7.953,-7.952 7.953,-20.847 0,-28.8 l -124.169,-125.798 c -8.865,-8.865 -21.132,-12.247 -32.599,-10.158 14.39,-13.78 37.222,-13.601 51.382,0.557 L 0,-28.8 C 7.952,-20.847 7.952,-7.952 0,0"
             style="fill:#bbec6c;fill-opacity:1;fill-rule:nonzero;stroke:none"
             id="path6108" /></g><g
           id="g6110"
           transform="translate(504.5,256)"><path
             d="m 0,0 c 0,-137.243 -111.257,-248.5 -248.5,-248.5 -137.243,0 -248.5,111.257 -248.5,248.5 0,137.243 111.257,248.5 248.5,248.5 C -111.257,248.5 0,137.243 0,0 Z"
             style="fill:none;stroke:#000000;stroke-width:15;stroke-linecap:round;stroke-linejoin:round;stroke-miterlimit:10;stroke-dasharray:none;stroke-opacity:1"
             id="path6112" /></g><g
           id="g6114"
           transform="translate(95.2734,117.585)"><path
             d="m 0,0 c -32.021,37.149 -51.383,85.521 -51.383,138.415 0,117.145 94.965,212.109 212.11,212.109 117.144,0 212.109,-94.964 212.109,-212.109 0,-117.144 -94.965,-212.109 -212.109,-212.109 -50.949,0 -97.702,17.963 -134.272,47.901"
             style="fill:none;stroke:#000000;stroke-width:15;stroke-linecap:round;stroke-linejoin:round;stroke-miterlimit:10;stroke-dasharray:none;stroke-opacity:1"
             id="path6116" /></g><g
           id="g6118"
           transform="translate(293.8965,208.2383)"><path
             d="m 0,0 90.408,90.408 c 7.952,7.953 7.952,20.848 0,28.8 L 65.375,144.24 c -7.952,7.953 -20.847,7.953 -28.8,0 L -68.981,38.685 -110.374,80.077 c -7.953,7.953 -20.848,7.953 -28.801,0 l -27.026,-27.026 c -7.952,-7.952 -7.952,-20.847 0,-28.8 l 69.242,-69.242 c 14.351,-14.351 37.617,-14.351 51.968,0 l 19.994,19.995"
             style="fill:none;stroke:#000000;stroke-width:15;stroke-linecap:round;stroke-linejoin:round;stroke-miterlimit:10;stroke-dasharray:none;stroke-opacity:1"
             id="path6120" /></g><g
           id="g6122"
           transform="translate(224.915,246.9229)"><path
             d="M 0,0 -18.857,-18.858"
             style="fill:none;stroke:#000000;stroke-width:15;stroke-linecap:round;stroke-linejoin:round;stroke-miterlimit:10;stroke-dasharray:none;stroke-opacity:1"
             id="path6124" /></g></g></g></g></svg>
