<svg height="512" viewBox="0 0 60 60" width="512" xmlns="http://www.w3.org/2000/svg"><g id="Icons_copy" data-name="Icons copy"><path d="m59 10v4h-58v-4a4 4 0 0 1 4-4h50a4 4 0 0 1 4 4z" fill="#f44335"/><path d="m55 6h-3a4 4 0 0 1 4 4v4h3v-4a4 4 0 0 0 -4-4z" fill="#c81e1e"/><path d="m59 14v40a4 4 0 0 1 -4 4h-50a4 4 0 0 1 -4-4v-40z" fill="#f5f5f5"/><path d="m56 14v40a4 4 0 0 1 -4 4h3a4 4 0 0 0 4-4v-40z" fill="#cfd8dc"/><g fill="#9e9e9e"><rect height="8" rx="2" width="4" x="28" y="2"/><rect height="8" rx="2" width="4" x="18" y="2"/><rect height="8" rx="2" width="4" x="8" y="2"/><rect height="8" rx="2" width="4" x="48" y="2"/><rect height="8" rx="2" width="4" x="38" y="2"/></g><path d="m30 45a2 2 0 0 1 -2-2v-4a2 2 0 0 1 2-2 7 7 0 1 0 -7-7 2 2 0 0 1 -4 0 11 11 0 1 1 13 10.818v2.182a2 2 0 0 1 -2 2z" fill="#9d27b0"/><circle cx="30" cy="51" fill="#9d27b0" r="2"/><path d="m55 5h-2v-1a3 3 0 0 0 -6 0v1h-4v-1a3 3 0 0 0 -6 0v1h-4v-1a3 3 0 0 0 -6 0v1h-4v-1a3 3 0 0 0 -6 0v1h-4v-1a3 3 0 0 0 -6 0v1h-2a5.006 5.006 0 0 0 -5 5v44a5.006 5.006 0 0 0 5 5h50a5.006 5.006 0 0 0 5-5v-44a5.006 5.006 0 0 0 -5-5zm-6-1a1 1 0 0 1 2 0v4a1 1 0 0 1 -2 0zm-10 0a1 1 0 0 1 2 0v4a1 1 0 0 1 -2 0zm-10 0a1 1 0 0 1 2 0v4a1 1 0 0 1 -2 0zm-10 0a1 1 0 0 1 2 0v4a1 1 0 0 1 -2 0zm-10 0a1 1 0 0 1 2 0v4a1 1 0 0 1 -2 0zm-4 3h2v1a3 3 0 0 0 6 0v-1h4v1a3 3 0 0 0 6 0v-1h4v1a3 3 0 0 0 6 0v-1h4v1a3 3 0 0 0 6 0v-1h4v1a3 3 0 0 0 6 0v-1h2a3 3 0 0 1 3 3v3h-56v-3a3 3 0 0 1 3-3zm50 50h-50a3 3 0 0 1 -3-3v-39h56v39a3 3 0 0 1 -3 3z"/><path d="m30 18a12.013 12.013 0 0 0 -12 12 3 3 0 0 0 6 0 6 6 0 1 1 6 6 3 3 0 0 0 -3 3v4a3 3 0 0 0 6 0v-1.379a12 12 0 0 0 -3-23.621zm1.819 21.834a1 1 0 0 0 -.819.984v2.182a1 1 0 0 1 -2 0v-4a1 1 0 0 1 1-1 8 8 0 1 0 -8-8 1 1 0 0 1 -2 0 10 10 0 1 1 11.819 9.834z"/><path d="m30 48a3 3 0 1 0 3 3 3 3 0 0 0 -3-3zm0 4a1 1 0 1 1 1-1 1 1 0 0 1 -1 1z"/></g></svg>