<svg xmlns="http://www.w3.org/2000/svg" version="1.1" xmlns:xlink="http://www.w3.org/1999/xlink" width="512" height="512" x="0" y="0" viewBox="0 0 512 512" style="enable-background:new 0 0 512 512" xml:space="preserve" class=""><g><path fill="#e9edf5" d="M448 504H144l-96-96V8h400zm0 0" opacity="1" data-original="#e9edf5" class=""></path><path fill="#afb4c8" d="m48 408 96 96v-96zm0 0" opacity="1" data-original="#afb4c8"></path><path fill="#d7d9e3" d="M339.281 339.281A15.637 15.637 0 0 1 328 344h-16c8.824.027 15.973 7.176 16 16-.066 8.809-7.191 15.934-16 16h-32c-8.824-.027-15.973-7.176-16-16v40c0 22.09-17.91 40-40 40v-64h-32l-24-24v24h-64v-16H48v-96h56v-16h64v24l24-24h112c8.824.027 15.973 7.176 16 16-.066 8.809-7.191 15.934-16 16h8c8.824.027 15.973 7.176 16 16-.066 8.809-7.191 15.934-16 16h16c8.824.027 15.973 7.176 16 16a15.637 15.637 0 0 1-4.719 11.281zm0 0" opacity="1" data-original="#d7d9e3" class=""></path><path fill="#fa4d5e" d="M80 328H0v-96h80zM80 232v-16h64v128H80zm0 0" opacity="1" data-original="#ffc247" class=""></path><path fill="#ff8b8b" d="M80 232v-16h16v128H80zM56 244v-12h24v96H56zm0 0" opacity="1" data-original="#fc9942" class=""></path><path fill="#ffdaaa" d="M248 248c-8.824-.027-15.973-7.176-16-16 .066-8.809 7.191-15.934 16-16h32c8.824.027 15.973 7.176 16 16-.066 8.809-7.191 15.934-16 16zM256 280c-8.824-.027-15.973-7.176-16-16 .066-8.809 7.191-15.934 16-16h32c8.824.027 15.973 7.176 16 16-.066 8.809-7.191 15.934-16 16zM272 312c-8.824-.027-15.973-7.176-16-16 .066-8.809 7.191-15.934 16-16h32c8.824.027 15.973 7.176 16 16-.066 8.809-7.191 15.934-16 16zM272 312h16c8.824.027 15.973 7.176 16 16-.066 8.809-7.191 15.934-16 16h-32c-8.824-.027-15.973-7.176-16-16 .066-8.809 7.191-15.934 16-16zm0 0" opacity="1" data-original="#ffdaaa" class=""></path><path fill="#ffb680" d="M252.441 343.559A15.384 15.384 0 0 1 252 340c.066-8.809 7.191-15.934 16-16h32c1.2.008 2.395.156 3.559.441A15.999 15.999 0 0 0 288 312h-32c-8.809.066-15.934 7.191-16 16a15.999 15.999 0 0 0 12.441 15.559zM268.441 311.559A15.384 15.384 0 0 1 268 308c.066-8.809 7.191-15.934 16-16h32c1.2.008 2.395.156 3.559.441A15.999 15.999 0 0 0 304 280h-32c-8.809.066-15.934 7.191-16 16a15.999 15.999 0 0 0 12.441 15.559zM252.441 279.559A15.384 15.384 0 0 1 252 276c.066-8.809 7.191-15.934 16-16h32c1.2.008 2.395.156 3.559.441A15.999 15.999 0 0 0 288 248h-32c-8.809.066-15.934 7.191-16 16a15.999 15.999 0 0 0 12.441 15.559zM244.441 247.559A15.384 15.384 0 0 1 244 244c.066-8.809 7.191-15.934 16-16h32c1.2.008 2.395.156 3.559.441A15.999 15.999 0 0 0 280 216h-32c-8.809.066-15.934 7.191-16 16a15.999 15.999 0 0 0 12.441 15.559zm0 0" opacity="1" data-original="#ffb680" class=""></path><path fill="#ffdaaa" d="M256 296c.027 8.824 7.176 15.973 16 16h-16c-8.809.066-15.934 7.191-16 16v40c0 22.09-17.91 40-40 40v-64h-32l-24-24v-80l24-24h80c-8.809.066-15.934 7.191-16 16 .027 8.824 7.176 15.973 16 16h8c-8.809.066-15.934 7.191-16 16 .027 8.824 7.176 15.973 16 16h16c-8.809.066-15.934 7.191-16 16zm0 0" opacity="1" data-original="#ffdaaa" class=""></path><path fill="#ffb680" d="M216 344h-16v64a39.658 39.658 0 0 0 16-3.383zM168 344h16l-24-24v-40h-16v40zm0 0" opacity="1" data-original="#ffb680" class=""></path><path fill="#eca977" d="M192 280c48 0 48 48 48 48 .066-8.809 7.191-15.934 16-16h16c-2.777-.02-5.5-.77-7.895-2.176-.226-.129-.457-.23-.671-.367a15.505 15.505 0 0 1-1.356-1.016c-.316-.257-.637-.496-.926-.8a14.61 14.61 0 0 1-1.047-1.098c-.312-.352-.617-.711-.906-1.086-.289-.379-.527-.746-.8-1.137-.29-.46-.56-.937-.797-1.425-.184-.368-.372-.735-.524-1.118a17.313 17.313 0 0 1-.566-1.808c-.078-.336-.2-.656-.266-.992A16.55 16.55 0 0 1 256 296c.066-8.809 7.191-15.934 16-16h-16c-2.777-.02-5.5-.77-7.895-2.176-.226-.129-.457-.23-.671-.367a15.505 15.505 0 0 1-1.356-1.016c-.316-.257-.637-.496-.926-.8a14.61 14.61 0 0 1-1.047-1.098c-.312-.352-.617-.711-.906-1.086-.289-.379-.527-.746-.8-1.137-.29-.46-.56-.937-.797-1.425-.184-.368-.372-.735-.524-1.118a17.313 17.313 0 0 1-.566-1.808c-.078-.336-.2-.656-.266-.992A16.55 16.55 0 0 1 240 264c.066-8.809 7.191-15.934 16-16h-8c-2.777-.02-5.5-.77-7.895-2.176-.226-.129-.457-.23-.671-.367a15.505 15.505 0 0 1-1.356-1.016c-.316-.257-.637-.496-.926-.8a14.61 14.61 0 0 1-1.047-1.098c-.312-.352-.617-.711-.906-1.086-.289-.379-.527-.746-.8-1.137-.29-.46-.56-.937-.797-1.425-.184-.368-.372-.735-.524-1.118a17.313 17.313 0 0 1-.566-1.808c-.078-.336-.2-.656-.266-.992A16.55 16.55 0 0 1 232 232c.066-8.809 7.191-15.934 16-16h-80l-24 24v40zm0 0" opacity="1" data-original="#eca977"></path><path fill="#d7d9e3" d="M400 32c-39.867-.047-75.602 24.574-89.758 61.844-14.152 37.27-3.77 79.41 26.078 105.836L312 224h80l-.238-.398c2.718.238 5.437.398 8.238.398a95.48 95.48 0 0 0 48-12.938V44.938A95.48 95.48 0 0 0 400 32zm0 0" opacity="1" data-original="#d7d9e3" class=""></path><path fill="#fa4d5e" d="M400 8c53.02 0 96 42.98 96 96s-42.98 96-96 96c-2.8 0-5.52-.16-8.238-.398L392 200h-80l24.32-24.32c-29.847-26.426-40.23-68.567-26.078-105.836C324.398 32.574 360.132 7.954 400 8zm0 0" opacity="1" data-original="#62d2f5" class=""></path><path fill="#f12d2d" d="M352 200h8c-2.8 0-5.52-.16-8.238-.398zm0 0" opacity="1" data-original="#f26213" class=""></path><path fill="#ff8b8b" d="M400 8a96.665 96.665 0 0 0-20 2.113c48.035 10.246 80.59 55.098 75.445 103.942C450.301 162.902 409.117 199.988 360 200h32l-.238-.398c2.718.238 5.437.398 8.238.398 53.02 0 96-42.98 96-96S453.02 8 400 8zm0 0" opacity="1" data-original="#2dc2f1" class=""></path><g fill="#27213a"><path d="M72 344a8 8 0 0 0 8 8h64a8 8 0 0 0 8-8v-4.688l10.344 10.344A8.001 8.001 0 0 0 168 352h24v56a8 8 0 0 0 8 8c26.5-.027 47.973-21.5 48-48v-17.473c2.563.95 5.27 1.446 8 1.473h32c13.227-.066 23.934-10.773 24-24a23.71 23.71 0 0 0-1.762-8.91 23.003 23.003 0 0 0 10.625-6.082A23.555 23.555 0 0 0 328 296a23.996 23.996 0 0 0-17.742-23.07c4.344-10.727.355-23.028-9.457-29.16A23.646 23.646 0 0 0 304 232c0-13.254-10.746-24-24-24H168a8.001 8.001 0 0 0-5.656 2.344L152 220.687V216a8 8 0 0 0-8-8H80a8 8 0 0 0-8 8v8H32v16h40v80H0v16h72zm221.55-10.305A7.661 7.661 0 0 1 288 336h-32a8 8 0 0 1-8-8 7.778 7.778 0 0 1 2.45-5.695A7.661 7.661 0 0 1 256 320h32a8 8 0 0 1 8 8 7.778 7.778 0 0 1-2.45 5.695zm-43.1-75.39A7.661 7.661 0 0 1 256 256h32a8 8 0 0 1 8 8 7.778 7.778 0 0 1-2.45 5.695A7.661 7.661 0 0 1 288 272h-32a8 8 0 0 1-8-8 7.778 7.778 0 0 1 2.45-5.695zm59.1 43.39A7.661 7.661 0 0 1 304 304h-32a8 8 0 0 1-8-8 7.778 7.778 0 0 1 2.45-5.695A7.661 7.661 0 0 1 272 288h32a8 8 0 0 1 8 8 7.778 7.778 0 0 1-2.45 5.695zM280 224a8 8 0 0 1 8 8 7.778 7.778 0 0 1-2.45 5.695A7.661 7.661 0 0 1 280 240h-32a8 8 0 0 1-8-8 7.778 7.778 0 0 1 2.45-5.695A7.661 7.661 0 0 1 248 224zm-108.688 0h54.145c-3.887 10.531.188 22.34 9.742 28.23A23.555 23.555 0 0 0 232 264a23.996 23.996 0 0 0 17.742 23.07 23.583 23.583 0 0 0 0 17.84 23.398 23.398 0 0 0-5.597 2.297C236.77 284.997 215.359 270.539 192 272v16c38.594 0 40 35.938 40 40v40c-.023 14.586-9.883 27.32-24 30.992V344a8 8 0 0 0-8-8h-28.688L152 316.687v-73.375zM88 224h48v112H88zM0 224h16v16H0zM56 16h264V0H48a8 8 0 0 0-8 8v200h16zm0 0" fill="#27213a" opacity="1" data-original="#27213a" class=""></path><path d="M440 496H152v-88a8 8 0 0 0-8-8H56v-48H40v56c0 2.121.844 4.156 2.344 5.656l96 96A8.001 8.001 0 0 0 144 512h304a8 8 0 0 0 8-8V216h-16zm-304-11.313L67.312 416H136zM400 0c-41.64-.05-79.29 24.773-95.648 63.066-16.36 38.297-8.266 82.657 20.558 112.711l-18.566 18.567A8 8 0 0 0 312 208h80a7.59 7.59 0 0 0 1.754-.215c2.062.137 4.133.215 6.246.215 57.438 0 104-46.563 104-104S457.437 0 400 0zm0 192c-2.559 0-5.047-.152-7.535-.367h-.633c-.8 0-1.594.129-2.352.39h-58.167l10.664-10.664a7.995 7.995 0 0 0 2.34-5.886 7.999 7.999 0 0 0-2.676-5.746c-31.66-28.215-38.649-75.012-16.621-111.247 22.03-36.238 66.796-51.57 106.418-36.449 39.617 15.121 62.785 56.38 55.074 98.078C478.8 161.81 442.406 192.051 400 192zm0 0" fill="#27213a" opacity="1" data-original="#27213a" class=""></path><path d="M400 104c-26.5.027-47.973 21.5-48 48h16c0-17.672 14.328-32 32-32s32 14.328 32 32h16c-.027-26.5-21.5-47.973-48-48zM392 72h-16a8 8 0 0 1-16 0h-16c0 13.254 10.746 24 24 24s24-10.746 24-24zM432 80a8 8 0 0 1-8-8h-16c0 13.254 10.746 24 24 24s24-10.746 24-24h-16a8 8 0 0 1-8 8zM72 32h112v16H72zM72 64h96v16H72zM200 32h16v16h-16zM373.656 477.656 392 459.312l18.344 18.344 11.312-11.312L403.312 448l18.344-18.344-11.312-11.312L392 436.688l-18.344-18.344-11.312 11.312L380.688 448l-18.344 18.344zM280 440h72v16h-72zM248 440h16v16h-16zm0 0" fill="#27213a" opacity="1" data-original="#27213a" class=""></path></g></g></svg>