<svg xmlns="http://www.w3.org/2000/svg" version="1.1" xmlns:xlink="http://www.w3.org/1999/xlink" width="512" height="512" x="0" y="0" viewBox="0 0 64 64" style="enable-background:new 0 0 512 512" xml:space="preserve" class=""><g><g data-name="Fill Outline"><path fill="#ff8b7b" d="M38 3h6v26h-6z" opacity="1" data-original="#ff8b7b" class=""></path><path fill="#a3daff" d="M32 3h6v26h-6z" opacity="1" data-original="#a3daff"></path><path fill="#ff8b7b" d="M26 3h6v26h-6z" opacity="1" data-original="#ff8b7b" class=""></path><path fill="#1ec0ff" d="M20 3h6v26h-6z" opacity="1" data-original="#1ec0ff" class=""></path><path fill="#ff6464" d="M44 19v10h-6V18.95c.33.03.66.05 1 .05z" opacity="1" data-original="#ff6464" class=""></path><path fill="#1ec0ff" d="M38 18.95V29h-6V16.14a9.95 9.95 0 0 0 6 2.81z" opacity="1" data-original="#1ec0ff" class=""></path><path fill="#ff6464" d="M32 16.14V29h-6V3h3v6a9.994 9.994 0 0 0 3 7.14z" opacity="1" data-original="#ff6464" class=""></path><circle cx="32" cy="41" r="20" fill="#8bbefc" opacity="1" data-original="#f9d423" class=""></circle><path fill="#8bbefc" d="M50.81 47.82a20 20 0 1 1-29.62-23.64 20 20 0 0 0 29.62 23.64z" opacity="1" data-original="#f9b53d" class=""></path><circle cx="32" cy="41" r="16" fill="#8bbefc" opacity="1" data-original="#f9b53d" class=""></circle><path fill="#467fff" d="M32 25a16 16 0 1 0 16 16 16 16 0 0 0-16-16zm8 26a19.978 19.978 0 0 1-19.97-19.5 15.987 15.987 0 0 1 24.61 18.94A20.254 20.254 0 0 1 40 51z" opacity="1" data-original="#fc913a" class=""></path><path fill="#e4f0ff" d="M35 46V30h-5l-5 5 2.439 2.182L30 36.613V46h-4v5h13v-5z" opacity="1" data-original="#ede574" class=""></path><path fill="#8bbefc" d="M39 50.97V51H26v-5h.78A19.822 19.822 0 0 0 39 50.97z" opacity="1" data-original="#f9d423" class=""></path><g fill="#464a51" data-name="Outline copy"><path d="M26 18.92a1 1 0 0 0 1-1V3a1 1 0 0 0-2 0v14.92a1 1 0 0 0 1 1z" fill="#000000" opacity="1" data-original="#464a51" class=""></path><path d="M46.851 27.571a1 1 0 0 0-.141 1.408 19.018 19.018 0 1 1-2.689-2.688 1 1 0 0 0 1.266-1.548c-.093-.076-.193-.141-.287-.215V3a1 1 0 0 0-2 0v20.138a20.993 20.993 0 0 0-4-1.93V3a1 1 0 0 0-2 0v17.619a21.06 21.06 0 0 0-4-.576V3a1 1 0 0 0-2 0v17.051a20.832 20.832 0 0 0-10 3.094V3a1 1 0 0 0-2 0v21.539a20.985 20.985 0 1 0 29.257 3.173 1 1 0 0 0-1.406-.141z" fill="#000000" opacity="1" data-original="#464a51" class=""></path><path d="M32 58a17 17 0 1 0-17-17 16.828 16.828 0 0 0 3.581 10.414 1 1 0 0 0 1.58-1.228A14.841 14.841 0 0 1 17 41a15 15 0 1 1 15 15 14.848 14.848 0 0 1-9.187-3.161 1 1 0 1 0-1.226 1.579A16.826 16.826 0 0 0 32 58z" fill="#000000" opacity="1" data-original="#464a51" class=""></path><path d="M35 40a1 1 0 0 0 1-1v-9a1 1 0 0 0-1-1h-5a1 1 0 0 0-.707.293l-5 5a1 1 0 0 0 .04 1.452l2.439 2.182a1 1 0 0 0 .884.231l1.344-.3V45h-3a1 1 0 0 0-1 1v5a1 1 0 0 0 1 1h13a1 1 0 0 0 1-1v-5a1 1 0 0 0-1-1h-3v-2a1 1 0 0 0-2 0v3a1 1 0 0 0 1 1h3v3H27v-3h3a1 1 0 0 0 1-1v-9.387a1 1 0 0 0-1.217-.976l-2.059.458-1.269-1.136L30.414 31H34v8a1 1 0 0 0 1 1zM42.48 46.909a1 1 0 0 0 1.327-.492 12.932 12.932 0 0 0-2.056-14 1 1 0 0 0-1.5 1.322 10.933 10.933 0 0 1 1.739 11.844 1 1 0 0 0 .49 1.326zM21.4 35.294a1 1 0 0 0-1.316.517 12.973 12.973 0 0 0 0 10.378 1 1 0 0 0 .918.6.988.988 0 0 0 .4-.084 1 1 0 0 0 .518-1.316 10.967 10.967 0 0 1 0-8.78 1 1 0 0 0-.52-1.315zM51 8h1v1a1 1 0 0 0 2 0V8h1a1 1 0 0 0 0-2h-1V5a1 1 0 0 0-2 0v1h-1a1 1 0 0 0 0 2zM57.5 21h-1v-1a1 1 0 0 0-2 0v1h-1a1 1 0 0 0 0 2h1v1a1 1 0 0 0 2 0v-1h1a1 1 0 0 0 0-2z" fill="#000000" opacity="1" data-original="#464a51" class=""></path><circle cx="61" cy="6" r="1" fill="#000000" opacity="1" data-original="#464a51" class=""></circle><circle cx="59.5" cy="14" r="1" fill="#000000" opacity="1" data-original="#464a51" class=""></circle><circle cx="49" cy="17" r="1" fill="#000000" opacity="1" data-original="#464a51" class=""></circle><path d="M4 7a1 1 0 0 0 2 0V6h1a1 1 0 0 0 0-2H6V3a1 1 0 0 0-2 0v1H3a1 1 0 0 0 0 2h1zM9 21H8v-1a1 1 0 0 0-2 0v1H5a1 1 0 0 0 0 2h1v1a1 1 0 0 0 2 0v-1h1a1 1 0 0 0 0-2z" fill="#000000" opacity="1" data-original="#464a51" class=""></path><circle cx="12" cy="6" r="1" fill="#000000" opacity="1" data-original="#464a51" class=""></circle><circle cx="8" cy="14" r="1" fill="#000000" opacity="1" data-original="#464a51" class=""></circle><circle cx="12" cy="26" r="1" fill="#000000" opacity="1" data-original="#464a51" class=""></circle></g></g></g></svg>