<svg id="Capa_1" enable-background="new 0 0 512 512" height="512" viewBox="0 0 512 512" width="512" xmlns="http://www.w3.org/2000/svg"><g><path d="m446.687 53.293c-19.128 3.844-38.347 3.97-57.408 1.835-4.117-.462-7.827 2.501-8.289 6.617-.462 4.117 2.501 7.828 6.617 8.289 20.705 2.32 41.43 2.104 62.034-2.034 24.275-4.88 47.359 13.967 47.359 39.193v281.853c0 30.3-21.402 56.507-50.892 62.314-51.216 10.088-103.342-6.272-153.321-21.792-70.303-21.826-145.343-45.193-217.787-6.676v-381.183c91.614-54.427 189.399 3.463 282.296 23.307 4.049.861 8.036-1.718 8.901-5.769.864-4.051-1.718-8.036-5.769-8.901-89.939-19.21-190.74-77.659-287.382-24.766-4.993-14.85-19.035-25.58-35.546-25.58-20.678 0-37.5 16.822-37.5 37.5v355.715c0 4.143 3.357 7.5 7.5 7.5s7.5-3.357 7.5-7.5v-355.715c0-12.406 10.094-22.5 22.5-22.5s22.5 10.094 22.5 22.5v437c0 12.406-10.094 22.5-22.5 22.5s-22.5-10.094-22.5-22.5v-51.285c0-4.143-3.357-7.5-7.5-7.5s-7.5 3.357-7.5 7.5v51.285c0 20.678 16.822 37.5 37.5 37.5s37.5-16.822 37.5-37.5v-34.375c68.203-40.524 139.159-19.262 213.339 3.77 51.935 16.124 105.999 32.956 160.669 22.183 36.5-7.188 62.992-39.585 62.992-77.031v-281.854c0-34.64-31.715-60.644-65.313-53.9z"/><path d="m153.203 92.5-42.426 42.427c-2.929 2.93-2.929 7.678 0 10.607 2.931 2.929 7.678 2.928 10.607 0l42.426-42.427c2.929-2.93 2.929-7.678 0-10.607-2.929-2.928-7.677-2.928-10.607 0z"/><path d="m170.881 110.179-42.426 42.426c-2.929 2.93-2.929 7.678 0 10.607 2.931 2.929 7.678 2.928 10.607 0l42.426-42.426c2.929-2.93 2.929-7.678 0-10.607-2.929-2.928-7.677-2.928-10.607 0z"/><path d="m146.133 180.89c2.931 2.929 7.678 2.928 10.607 0l42.426-42.426c2.929-2.93 2.929-7.678 0-10.607-2.93-2.928-7.678-2.928-10.607 0l-42.426 42.426c-2.929 2.929-2.929 7.677 0 10.607z"/><path d="m199.166 345.534c2.929-2.93 2.929-7.678 0-10.607l-42.426-42.427c-2.929-2.927-7.677-2.929-10.607 0-2.929 2.93-2.929 7.678 0 10.607l42.426 42.427c2.93 2.929 7.677 2.928 10.607 0z"/><path d="m128.455 310.178c-2.929 2.93-2.929 7.678 0 10.607l11.313 11.313c2.931 2.929 7.678 2.928 10.607 0 2.929-2.93 2.929-7.678 0-10.607l-11.313-11.313c-2.929-2.928-7.677-2.928-10.607 0z"/><path d="m181.488 363.212c2.929-2.93 2.929-7.678 0-10.607l-11.313-11.313c-2.93-2.928-7.678-2.928-10.607 0-2.929 2.93-2.929 7.678 0 10.607l11.313 11.313c2.931 2.929 7.678 2.928 10.607 0z"/><path d="m110.777 338.463 42.426 42.427c2.931 2.929 7.678 2.928 10.607 0 2.929-2.93 2.929-7.678 0-10.607l-42.426-42.427c-2.93-2.927-7.678-2.929-10.607 0-2.928 2.929-2.928 7.677 0 10.607z"/><path d="m383.441 345.534 11.313-11.313c2.929-2.93 2.929-7.678 0-10.607-2.93-2.928-7.678-2.928-10.607 0l-11.313 11.313c-2.929 2.93-2.929 7.678 0 10.607 2.931 2.929 7.678 2.928 10.607 0z"/><path d="m403.946 314.421c2.931 2.929 7.678 2.928 10.607 0l11.313-11.313c2.929-2.93 2.929-7.678 0-10.607-2.93-2.928-7.678-2.928-10.607 0l-11.313 11.313c-2.928 2.929-2.928 7.677 0 10.607z"/><path d="m401.119 363.212 11.313-11.313c2.929-2.93 2.929-7.678 0-10.607-2.93-2.928-7.678-2.928-10.607 0l-11.313 11.313c-2.929 2.93-2.929 7.678 0 10.607 2.93 2.929 7.677 2.928 10.607 0z"/><path d="m443.545 310.178c-2.93-2.928-7.678-2.928-10.607 0l-11.313 11.313c-2.929 2.93-2.929 7.678 0 10.607 2.931 2.929 7.678 2.928 10.607 0l11.313-11.313c2.929-2.93 2.929-7.678 0-10.607z"/><path d="m418.797 380.89 11.313-11.313c2.929-2.93 2.929-7.678 0-10.607-2.93-2.928-7.678-2.928-10.607 0l-11.313 11.313c-2.929 2.93-2.929 7.678 0 10.607 2.93 2.928 7.677 2.927 10.607 0z"/><path d="m449.909 349.776 11.313-11.313c2.929-2.93 2.929-7.678 0-10.607-2.93-2.928-7.678-2.928-10.607 0l-11.313 11.313c-2.929 2.93-2.929 7.678 0 10.607 2.93 2.929 7.677 2.928 10.607 0z"/><path d="m430.11 114.421c2.929-2.93 2.929-7.678 0-10.607l-11.313-11.314c-2.93-2.928-7.678-2.928-10.607 0-2.929 2.93-2.929 7.678 0 10.607l11.313 11.313c2.931 2.93 7.678 2.929 10.607.001z"/><path d="m461.223 134.927-11.313-11.313c-2.93-2.928-7.678-2.928-10.607 0-2.929 2.93-2.929 7.678 0 10.607l11.313 11.313c2.931 2.929 7.678 2.928 10.607 0 2.928-2.93 2.928-7.678 0-10.607z"/><path d="m384.147 149.776c2.931 2.929 7.678 2.928 10.607 0 2.929-2.93 2.929-7.678 0-10.607l-11.313-11.313c-2.93-2.928-7.678-2.928-10.607 0-2.929 2.93-2.929 7.678 0 10.607z"/><path d="m415.26 180.89c2.931 2.929 7.678 2.928 10.607 0 2.929-2.93 2.929-7.678 0-10.607l-11.313-11.313c-2.93-2.928-7.678-2.928-10.607 0-2.929 2.93-2.929 7.678 0 10.607z"/><path d="m390.512 110.178c-2.929 2.93-2.929 7.678 0 10.607l42.427 42.427c2.931 2.929 7.678 2.928 10.607 0 2.929-2.93 2.929-7.678 0-10.607l-42.427-42.427c-2.93-2.928-7.678-2.928-10.607 0z"/><path d="m285.945 344.194h.104c75.338 0 129.63-76.885 98.583-149.568-17.241-40.363-55.038-65.431-98.653-65.431-.008 0-.021 0-.029 0-28.721.007-55.705 11.188-75.979 31.484-.022.022-.044.044-.065.065-67.386 67.576-19.412 183.36 76.039 183.45zm-65.364-172.913c17.442-17.461 40.659-27.08 65.372-27.086h.025c37.503 0 70.019 21.58 84.858 56.322 7.801 18.261 9.556 37.558 5.676 55.701-2.659-9.307-7.631-17.836-14.576-24.789-.001 0-.001 0-.001 0-22.464-22.486-58.824-22.487-81.29.001-16.522 16.54-43.545 16.538-60.065-.001-16.565-16.582-16.565-43.565.001-60.148zm-25.073 46.392c12.244 41.681 65.012 55.134 95.751 24.358 8.022-8.03 18.688-12.453 30.033-12.453 35.687 0 56.833 42.587 31.222 71.354-15.759 17.702-40.597 28.262-66.465 28.262-.028 0-.062 0-.09 0-59.259-.056-102.391-54.281-90.451-111.521z"/></g></svg>