<svg id="_01-gyeongbokgung_palace" height="512" viewBox="0 0 64 64" width="512" xmlns="http://www.w3.org/2000/svg" data-name="01-gyeongbokgung palace"><path d="m32 36c-13.55 0-21.5-.892-25.787-1.639-3.948-.69-6.213-3.008-6.213-6.361a1 1 0 0 1 1.142-.99 104.9 104.9 0 0 0 11.858.99h2v2h-2a96.848 96.848 0 0 1 -10.856-.838c.557 2.1 2.631 2.918 4.413 3.228 4.207.735 12.036 1.61 25.443 1.61s21.236-.875 25.443-1.61c1.782-.31 3.856-1.13 4.413-3.228a96.848 96.848 0 0 1 -10.856.838h-30v-2h30a104.82 104.82 0 0 0 11.858-.99 1 1 0 0 1 1.142.99c0 3.353-2.265 5.671-6.213 6.361-4.287.747-12.237 1.639-25.787 1.639z"/><path d="m17 28h2v2h-2z"/><path d="m32 23c-14.926 0-22.9-2.015-26.321-3.217a4.012 4.012 0 0 1 -2.679-3.783 1 1 0 0 1 1.142-.99 110.543 110.543 0 0 0 11.04.982l.838-4.192a1 1 0 0 1 1.3-.753 34.407 34.407 0 0 0 3.873.943l-.378 1.964c-1.313-.253-2.342-.505-3.044-.693l-.791 3.939a1 1 0 0 1 -.98.8 95.611 95.611 0 0 1 -10.608-.807 1.989 1.989 0 0 0 .949.7c3.303 1.162 11.029 3.107 25.659 3.107z"/><path d="m32 23v-2c14.63 0 22.356-1.945 25.659-3.1a1.989 1.989 0 0 0 .949-.7 95.611 95.611 0 0 1 -10.608.8 1 1 0 0 1 -.98-.8l-.787-3.929a56.067 56.067 0 0 1 -14.233 1.729 60.533 60.533 0 0 1 -9.152-.689l.3-1.977a58.461 58.461 0 0 0 8.852.666 51.593 51.593 0 0 0 14.685-1.949 1 1 0 0 1 1.295.753l.838 4.188a110.473 110.473 0 0 0 11.04-.982 1 1 0 0 1 1.142.99 4.013 4.013 0 0 1 -2.678 3.783c-3.422 1.202-11.396 3.217-26.322 3.217z"/><path d="m36 27h-8a1 1 0 0 1 -1-1v-4a1 1 0 0 1 1-1h8a1 1 0 0 1 1 1v4a1 1 0 0 1 -1 1zm-7-2h6v-2h-6z"/><path d="m11 20h2v9h-2z"/><path d="m12 26c-7.119 0-9-6.541-9-10h2c0 .327.109 8 7 8z"/><path d="m51 20h2v9h-2z"/><path d="m52 26v-2c6.891 0 7-7.675 7-8h2c0 3.459-1.881 10-9 10z"/><path d="m12 25h16v2h-16z"/><path d="m49 25h3v2h-3z"/><path d="m36 25h11v2h-11z"/><path d="m55 47h-46a1 1 0 0 1 -1-1v-13h2v12h44v-10.818h2v11.818a1 1 0 0 1 -1 1z"/><path d="m52 37h3v2h-3z"/><path d="m48 37h2v2h-2z"/><path d="m9 37h37v2h-37z"/><path d="m38 46h-2v-4h-8v4h-2v-5a1 1 0 0 1 1-1h10a1 1 0 0 1 1 1z"/><path d="m51 47h-6a1 1 0 0 1 -1-1v-4a1 1 0 0 1 1-1h6a1 1 0 0 1 1 1v4a1 1 0 0 1 -1 1zm-5-2h4v-2h-4z"/><path d="m19 47h-6a1 1 0 0 1 -1-1v-4a1 1 0 0 1 1-1h6a1 1 0 0 1 1 1v4a1 1 0 0 1 -1 1zm-5-2h4v-2h-4z"/><path d="m40 55h-16a1 1 0 0 1 -1-1v-4a1 1 0 0 1 .105-.447l2-4 1.79.894-1.895 3.789v2.764h14v-2.764l-1.9-3.789 1.79-.894 2 4a1 1 0 0 1 .11.447v4a1 1 0 0 1 -1 1z"/><path d="m63 54h-16v-2h15v-5h-7v-2h8a1 1 0 0 1 1 1v7a1 1 0 0 1 -1 1z"/><path d="m43 52h2v2h-2z"/><path d="m21 54h-20a1 1 0 0 1 -1-1v-7a1 1 0 0 1 1-1h8v2h-7v5h19z"/><path d="m43 48h20v2h-20z"/><path d="m1 48h20v2h-20z"/><path d="m26.949 54.316-1.9-.632.951-2.846v-4.838h2v5a1 1 0 0 1 -.051.316z"/><path d="m37.051 54.316-1-3a1 1 0 0 1 -.051-.316v-5h2v4.838l.949 2.846z"/><path d="m27 50h10v2h-10z"/><path d="m16 10h2v2h-2z"/><path d="m46 10h2v2h-2z"/></svg>