<?xml version="1.0" encoding="UTF-8" standalone="no"?>
<!-- Created with Inkscape (http://www.inkscape.org/) -->

<svg
   version="1.1"
   id="svg5970"
   xml:space="preserve"
   width="682.66669"
   height="682.66669"
   viewBox="0 0 682.66669 682.66669"
   xmlns="http://www.w3.org/2000/svg"><defs
     id="defs5974"><clipPath
       clipPathUnits="userSpaceOnUse"
       id="clipPath5984"><path
         d="M 0,512 H 512 V 0 H 0 Z"
         id="path5982" /></clipPath></defs><g
     id="g5976"
     transform="matrix(1.3333333,0,0,-1.3333333,0,682.66667)"><g
       id="g5978"><g
         id="g5980"
         clip-path="url(#clipPath5984)"><g
           id="g5986"
           transform="translate(504.5,256)"><path
             d="m 0,0 c 0,-137.243 -111.257,-248.5 -248.5,-248.5 -137.243,0 -248.5,111.257 -248.5,248.5 0,137.243 111.257,248.5 248.5,248.5 C -111.257,248.5 0,137.243 0,0"
             style="fill:#ffaf9e;fill-opacity:1;fill-rule:nonzero;stroke:none"
             id="path5988" /></g><g
           id="g5990"
           transform="translate(256,504.5)"><path
             d="m 0,0 c -5.04,0 -10.041,-0.168 -15.006,-0.464 130.253,-7.761 233.493,-115.833 233.493,-248.036 0,-132.203 -103.24,-240.275 -233.493,-248.036 C -10.041,-496.832 -5.04,-497 0,-497 c 137.242,0 248.5,111.258 248.5,248.5 C 248.5,-111.257 137.242,0 0,0"
             style="fill:#ffa78f;fill-opacity:1;fill-rule:nonzero;stroke:none"
             id="path5992" /></g><g
           id="g5994"
           transform="translate(468.1094,256)"><path
             d="m 0,0 c 0,-117.145 -94.965,-212.109 -212.109,-212.109 -117.145,0 -212.11,94.964 -212.11,212.109 0,117.145 94.965,212.109 212.11,212.109 C -94.965,212.109 0,117.145 0,0"
             style="fill:#f07181;fill-opacity:1;fill-rule:nonzero;stroke:none"
             id="path5996" /></g><g
           id="g5998"
           transform="translate(256,468.1094)"><path
             d="m 0,0 c -5.046,0 -10.048,-0.188 -15.006,-0.535 110.141,-7.7 197.103,-99.476 197.103,-211.574 0,-112.099 -86.962,-203.874 -197.103,-211.575 4.958,-0.346 9.96,-0.535 15.006,-0.535 117.145,0 212.109,94.965 212.109,212.11 C 212.109,-94.965 117.145,0 0,0"
             style="fill:#eb5569;fill-opacity:1;fill-rule:nonzero;stroke:none"
             id="path6000" /></g><g
           id="g6002"
           transform="translate(357.2266,203.4043)"><path
             d="m 0,0 -39.21,39.211 c -3.978,3.978 -3.978,10.429 0,14.406 L 0,92.828 c 7.771,7.772 7.771,20.371 0,28.143 l -26.67,26.67 c -7.771,7.771 -20.371,7.771 -28.143,0 l -39.21,-39.21 c -3.979,-3.979 -10.429,-3.979 -14.407,0 l -39.211,39.21 c -7.771,7.771 -20.371,7.771 -28.142,0 l -26.671,-26.67 c -7.771,-7.772 -7.771,-20.371 0,-28.143 l 39.211,-39.211 c 3.978,-3.977 3.978,-10.428 0,-14.406 L -202.454,0 c -7.771,-7.771 -7.771,-20.371 0,-28.142 l 26.671,-26.671 c 7.771,-7.771 20.371,-7.771 28.142,0 l 39.211,39.211 c 3.978,3.978 10.428,3.978 14.407,0 l 39.21,-39.211 c 7.772,-7.771 20.372,-7.771 28.143,0 L 0,-28.142 C 7.771,-20.371 7.771,-7.771 0,0"
             style="fill:#ffeee6;fill-opacity:1;fill-rule:nonzero;stroke:none"
             id="path6004" /></g><g
           id="g6006"
           transform="translate(190.5083,339.7119)"><path
             d="m 0,0 40.974,-42.9 c 3.978,-3.978 10.428,-3.978 14.406,0 l 10.112,12.039 c -2.607,0 -5.215,0.995 -7.203,2.984 L 19.078,11.334 c -7.771,7.77 -20.371,7.77 -28.142,0 l -5.53,-5.53 C -9.329,5.941 -4.019,4.02 0,0"
             style="fill:#ffdfcf;fill-opacity:1;fill-rule:nonzero;stroke:none"
             id="path6008" /></g><g
           id="g6010"
           transform="translate(230.3115,201.2617)"><path
             d="m 0,0 -41.753,-43.68 c -2.997,-2.997 -6.714,-4.826 -10.594,-5.511 l 3.479,-3.479 c 7.771,-7.771 20.371,-7.771 28.142,0 l 39.211,39.211 c 1.989,1.989 4.597,2.983 7.203,2.983 L 14.407,0 C 10.429,3.979 3.979,3.979 0,0"
             style="fill:#ffdfcf;fill-opacity:1;fill-rule:nonzero;stroke:none"
             id="path6012" /></g><g
           id="g6014"
           transform="translate(318.0166,242.6152)"><path
             d="m 0,0 c -3.979,3.979 -3.979,10.429 0,14.406 l 39.21,39.211 c 7.771,7.772 7.771,20.371 0,28.143 l -26.67,26.671 c -7.771,7.77 -20.371,7.77 -28.143,0 l -7.855,-7.856 c 6.313,1.273 13.124,-0.533 18.02,-5.429 L 9.198,81.76 c 7.771,-7.772 7.771,-20.371 0,-28.143 L -30.013,14.406 C -33.991,10.429 -33.991,3.979 -30.013,0 L 9.198,-39.211 c 7.771,-7.77 7.771,-20.371 0,-28.142 L -4.268,-80.354 c -5.449,-5.449 -13.267,-7.061 -20.135,-4.869 l 8.8,-8.8 c 7.772,-7.772 20.372,-7.772 28.143,0 l 26.67,26.67 c 7.771,7.771 7.771,20.372 0,28.142 z"
             style="fill:#ffdfcf;fill-opacity:1;fill-rule:nonzero;stroke:none"
             id="path6016" /></g><g
           id="g6018"
           transform="translate(504.5,256)"><path
             d="m 0,0 c 0,-137.243 -111.257,-248.5 -248.5,-248.5 -137.243,0 -248.5,111.257 -248.5,248.5 0,137.243 111.257,248.5 248.5,248.5 C -111.257,248.5 0,137.243 0,0 Z"
             style="fill:none;stroke:#000000;stroke-width:15;stroke-linecap:round;stroke-linejoin:round;stroke-miterlimit:10;stroke-dasharray:none;stroke-opacity:1"
             id="path6020" /></g><g
           id="g6022"
           transform="translate(238.1162,44.6338)"><path
             d="m 0,0 c -108.775,9.081 -194.226,100.245 -194.226,211.366 0,117.145 94.965,212.11 212.11,212.11 117.144,0 212.109,-94.965 212.109,-212.11 C 229.993,100.242 144.54,9.077 35.761,0"
             style="fill:none;stroke:#000000;stroke-width:15;stroke-linecap:round;stroke-linejoin:round;stroke-miterlimit:10;stroke-dasharray:none;stroke-opacity:1"
             id="path6024" /></g><g
           id="g6026"
           transform="translate(216.4121,344.2187)"><path
             d="m 0,0 -6.826,6.826 c -7.771,7.772 -20.371,7.772 -28.142,0 l -26.671,-26.67 c -7.771,-7.771 -7.771,-20.371 0,-28.142 l 39.211,-39.211 c 3.978,-3.978 3.978,-10.428 0,-14.407 l -39.211,-39.21 c -7.771,-7.772 -7.771,-20.372 0,-28.142 l 26.671,-26.671 c 7.771,-7.771 20.371,-7.771 28.142,0 l 39.211,39.211 c 3.978,3.978 10.428,3.978 14.406,0 l 39.211,-39.211 c 7.771,-7.771 20.371,-7.771 28.143,0 l 26.669,26.671 c 7.772,7.77 7.772,20.37 0,28.142 l -39.21,39.21 c -3.978,3.979 -3.978,10.429 0,14.407 l 39.21,39.211 c 7.772,7.771 7.772,20.371 0,28.142 l -26.669,26.67 c -7.772,7.772 -20.372,7.772 -28.143,0 l -39.211,-39.21 c -3.978,-3.978 -10.428,-3.978 -14.406,0 l -7.42,7.419"
             style="fill:none;stroke:#000000;stroke-width:15;stroke-linecap:round;stroke-linejoin:round;stroke-miterlimit:10;stroke-dasharray:none;stroke-opacity:1"
             id="path6028" /></g><g
           id="g6030"
           transform="translate(318.0166,242.6152)"><path
             d="M 0,0 -23.8,23.8"
             style="fill:none;stroke:#000000;stroke-width:15;stroke-linecap:round;stroke-linejoin:round;stroke-miterlimit:10;stroke-dasharray:none;stroke-opacity:1"
             id="path6032" /></g></g></g></g></svg>
