<?xml version="1.0" encoding="UTF-8" standalone="no"?>
<!-- Created with Inkscape (http://www.inkscape.org/) -->

<svg
   version="1.1"
   id="svg3804"
   xml:space="preserve"
   width="682.66669"
   height="682.66669"
   viewBox="0 0 682.66669 682.66669"
   xmlns="http://www.w3.org/2000/svg"><defs
     id="defs3808"><clipPath
       clipPathUnits="userSpaceOnUse"
       id="clipPath3818"><path
         d="M 0,512 H 512 V 0 H 0 Z"
         id="path3816" /></clipPath></defs><g
     id="g3810"
     transform="matrix(1.3333333,0,0,-1.3333333,0,682.66667)"><g
       id="g3812"><g
         id="g3814"
         clip-path="url(#clipPath3818)"><g
           id="g3820"
           transform="translate(117.1123,294.71)"><path
             d="M 0,0 C -16.666,-5.644 -30.343,-17.769 -38.03,-33.374"
             style="fill:none;stroke:#000000;stroke-width:15;stroke-linecap:round;stroke-linejoin:round;stroke-miterlimit:10;stroke-dasharray:none;stroke-opacity:1"
             id="path3822" /></g><g
           id="g3824"
           transform="translate(72.3296,235.5371)"><path
             d="M 0,0 H 86.248"
             style="fill:none;stroke:#000000;stroke-width:15;stroke-linecap:round;stroke-linejoin:round;stroke-miterlimit:10;stroke-dasharray:none;stroke-opacity:1"
             id="path3826" /></g><g
           id="g3828"
           transform="translate(388.9336,235.5371)"><path
             d="M 0,0 H 49.737"
             style="fill:none;stroke:#000000;stroke-width:15;stroke-linecap:round;stroke-linejoin:round;stroke-miterlimit:10;stroke-dasharray:none;stroke-opacity:1"
             id="path3830" /></g><g
           id="g3832"
           transform="translate(231.9443,365.5996)"><path
             d="m 0,0 -89.288,-0.293 -60.338,40.597 v -71.989 l 43.361,-48.86 c 10.794,-12.163 26.325,-19.131 42.642,-19.131 h 6.725 v -19.063"
             style="fill:none;stroke:#000000;stroke-width:15;stroke-linecap:round;stroke-linejoin:round;stroke-miterlimit:10;stroke-dasharray:none;stroke-opacity:1"
             id="path3834" /></g><g
           id="g3836"
           transform="translate(335.2861,359.6758)"><path
             d="M 0,0 C -6.513,3.984 -14.103,6.19 -21.996,6.19 L -57.431,6.074"
             style="fill:none;stroke:#000000;stroke-width:15;stroke-linecap:round;stroke-linejoin:round;stroke-miterlimit:10;stroke-dasharray:none;stroke-opacity:1"
             id="path3838" /></g><g
           id="g3840"
           transform="translate(377.6113,298.9697)"><path
             d="M 0,0 -19.661,32.353"
             style="fill:none;stroke:#000000;stroke-width:15;stroke-linecap:round;stroke-linejoin:round;stroke-miterlimit:10;stroke-dasharray:none;stroke-opacity:1"
             id="path3842" /></g><g
           id="g3844"
           transform="translate(354.7637,219.8975)"><path
             d="m 0,0 h 8.32 c 16.814,0 29.45,13.625 29.45,30.432 0,5.937 -0.615,11.832 -1.817,17.591"
             style="fill:none;stroke:#000000;stroke-width:15;stroke-linecap:round;stroke-linejoin:round;stroke-miterlimit:10;stroke-dasharray:none;stroke-opacity:1"
             id="path3846" /></g><g
           id="g3848"
           transform="translate(72.7441,30.3789)"><path
             d="M 0,0 V 127.382 H 69.913"
             style="fill:none;stroke:#000000;stroke-width:15;stroke-linecap:round;stroke-linejoin:round;stroke-miterlimit:10;stroke-dasharray:none;stroke-opacity:1"
             id="path3850" /></g><g
           id="g3852"
           transform="translate(47.9058,74.2686)"><path
             d="M 0,0 V -43.89"
             style="fill:none;stroke:#000000;stroke-width:15;stroke-linecap:round;stroke-linejoin:round;stroke-miterlimit:10;stroke-dasharray:none;stroke-opacity:1"
             id="path3854" /></g><g
           id="g3856"
           transform="translate(47.9058,235.5371)"><path
             d="M 0,0 V -122.958"
             style="fill:none;stroke:#000000;stroke-width:15;stroke-linecap:round;stroke-linejoin:round;stroke-miterlimit:10;stroke-dasharray:none;stroke-opacity:1"
             id="path3858" /></g><g
           id="g3860"
           transform="translate(145.5,182.5889)"><path
             d="M 0,0 H -72.756 V 52.948"
             style="fill:none;stroke:#000000;stroke-width:15;stroke-linecap:round;stroke-linejoin:round;stroke-miterlimit:10;stroke-dasharray:none;stroke-opacity:1"
             id="path3862" /></g><g
           id="g3864"
           transform="translate(438.4473,235.5361)"><path
             d="M 0,0 V -52.947 H -75.447"
             style="fill:none;stroke:#000000;stroke-width:15;stroke-linecap:round;stroke-linejoin:round;stroke-miterlimit:10;stroke-dasharray:none;stroke-opacity:1"
             id="path3866" /></g><g
           id="g3868"
           transform="translate(463.2861,30.3789)"><path
             d="M 0,0 V 205.157"
             style="fill:none;stroke:#000000;stroke-width:15;stroke-linecap:round;stroke-linejoin:round;stroke-miterlimit:10;stroke-dasharray:none;stroke-opacity:1"
             id="path3870" /></g><g
           id="g3872"
           transform="translate(365.5518,157.7607)"><path
             d="M 0,0 H 72.896 V -127.382"
             style="fill:none;stroke:#000000;stroke-width:15;stroke-linecap:round;stroke-linejoin:round;stroke-miterlimit:10;stroke-dasharray:none;stroke-opacity:1"
             id="path3874" /></g><path
           d="M 393.527,30.379 H 118.472 V 87 h 275.055 z"
           style="fill:none;stroke:#000000;stroke-width:15;stroke-linecap:round;stroke-linejoin:round;stroke-miterlimit:10;stroke-dasharray:none;stroke-opacity:1"
           id="path3876" /><g
           id="g3878"
           transform="translate(185.9771,87)"><path
             d="M 0,0 V -56.621"
             style="fill:none;stroke:#000000;stroke-width:15;stroke-linecap:round;stroke-linejoin:round;stroke-miterlimit:10;stroke-dasharray:none;stroke-opacity:1"
             id="path3880" /></g><g
           id="g3882"
           transform="translate(254.8525,87)"><path
             d="M 0,0 V -56.621"
             style="fill:none;stroke:#000000;stroke-width:15;stroke-linecap:round;stroke-linejoin:round;stroke-miterlimit:10;stroke-dasharray:none;stroke-opacity:1"
             id="path3884" /></g><g
           id="g3886"
           transform="translate(323.7285,87)"><path
             d="M 0,0 V -56.621"
             style="fill:none;stroke:#000000;stroke-width:15;stroke-linecap:round;stroke-linejoin:round;stroke-miterlimit:10;stroke-dasharray:none;stroke-opacity:1"
             id="path3888" /></g><g
           id="g3890"
           transform="translate(293.377,433.0986)"><path
             d="M 0,0 V -29.004 C 0,-38.801 -3.674,-47.739 -9.72,-54.52"
             style="fill:none;stroke:#000000;stroke-width:15;stroke-linecap:round;stroke-linejoin:round;stroke-miterlimit:10;stroke-dasharray:none;stroke-opacity:1"
             id="path3892" /></g><g
           id="g3894"
           transform="translate(226.0483,378.5791)"><path
             d="M 0,0 C -6.045,6.78 -9.719,15.719 -9.719,25.516 V 54.52"
             style="fill:none;stroke:#000000;stroke-width:15;stroke-linecap:round;stroke-linejoin:round;stroke-miterlimit:10;stroke-dasharray:none;stroke-opacity:1"
             id="path3896" /></g><g
           id="g3898"
           transform="translate(293.377,438.1182)"><path
             d="m 0,0 c 0,10.428 -4.215,19.876 -11.039,26.771 v 3.552 c 0,13.909 -11.364,25.185 -25.384,25.185 h -4.202 c -14.02,0 -25.384,-11.276 -25.384,-25.185 V 26.771 C -72.834,19.876 -77.048,10.428 -77.048,0 V -5.02 H 0 Z"
             style="fill:none;stroke:#000000;stroke-width:15;stroke-linecap:round;stroke-linejoin:round;stroke-miterlimit:10;stroke-dasharray:none;stroke-opacity:1"
             id="path3900" /></g><g
           id="g3902"
           transform="translate(238.5576,490.7061)"><path
             d="M 0,0 V 13.794"
             style="fill:none;stroke:#000000;stroke-width:15;stroke-linecap:round;stroke-linejoin:round;stroke-miterlimit:10;stroke-dasharray:none;stroke-opacity:1"
             id="path3904" /></g><g
           id="g3906"
           transform="translate(271.1475,490.7061)"><path
             d="M 0,0 V 13.794"
             style="fill:none;stroke:#000000;stroke-width:15;stroke-linecap:round;stroke-linejoin:round;stroke-miterlimit:10;stroke-dasharray:none;stroke-opacity:1"
             id="path3908" /></g><g
           id="g3910"
           transform="translate(342.4316,241.9521)"><path
             d="m 0,0 c 26.532,-20.61 26.532,-154.952 26.532,-154.952 h -225.928 c 0,0 -5.052,137.335 21.709,155.647 26.023,17.809 76.381,-18.086 91.657,-18.086"
             style="fill:none;stroke:#000000;stroke-width:15;stroke-linecap:round;stroke-linejoin:round;stroke-miterlimit:10;stroke-dasharray:none;stroke-opacity:1"
             id="path3912" /></g><g
           id="g3914"
           transform="translate(296.9951,190.5244)"><path
             d="M 0,0 C 0,0 -11.595,-35.445 -42.143,-54.976"
             style="fill:none;stroke:#000000;stroke-width:15;stroke-linecap:round;stroke-linejoin:round;stroke-miterlimit:10;stroke-dasharray:none;stroke-opacity:1"
             id="path3916" /></g><g
           id="g3918"
           transform="translate(212.7104,190.5244)"><path
             d="M 0,0 C 0,0 6.089,-18.614 21.067,-36.297"
             style="fill:none;stroke:#000000;stroke-width:15;stroke-linecap:round;stroke-linejoin:round;stroke-miterlimit:10;stroke-dasharray:none;stroke-opacity:1"
             id="path3920" /></g><g
           id="g3922"
           transform="translate(82.3188,405.9033)"><path
             d="m 0,0 -2.435,1.835 c -11.045,8.327 -26.907,0.496 -26.907,-13.282 0,-5.532 2.761,-10.703 7.369,-13.805 L 0,-40.037 Z"
             style="fill:none;stroke:#000000;stroke-width:15;stroke-linecap:round;stroke-linejoin:round;stroke-miterlimit:10;stroke-dasharray:none;stroke-opacity:1"
             id="path3924" /></g><g
           id="g3926"
           transform="translate(175.0464,265.9238)"><path
             d="M 0,0 C 0,0 -3.046,42.518 23.625,69.856"
             style="fill:none;stroke:#000000;stroke-width:15;stroke-linecap:round;stroke-linejoin:round;stroke-miterlimit:10;stroke-dasharray:none;stroke-opacity:1"
             id="path3928" /></g><g
           id="g3930"
           transform="translate(311.2549,335.7803)"><path
             d="M 0,0 C 14.364,-14.352 22.697,-34.558 22.697,-54.678"
             style="fill:none;stroke:#000000;stroke-width:15;stroke-linecap:round;stroke-linejoin:round;stroke-miterlimit:10;stroke-dasharray:none;stroke-opacity:1"
             id="path3932" /></g><g
           id="g3934"
           transform="translate(227.3677,464.8896)"><path
             d="M 0,0 H 22.796"
             style="fill:none;stroke:#000000;stroke-width:15;stroke-linecap:round;stroke-linejoin:round;stroke-miterlimit:10;stroke-dasharray:none;stroke-opacity:1"
             id="path3936" /></g><g
           id="g3938"
           transform="translate(112.4795,385.6104)"><path
             d="m 0,0 v -84.388 l -30.161,32.693 v 71.988 z"
             style="fill:none;stroke:#000000;stroke-width:15;stroke-linecap:round;stroke-linejoin:round;stroke-miterlimit:10;stroke-dasharray:none;stroke-opacity:1"
             id="path3940" /></g><g
           id="g3942"
           transform="translate(470.4258,235.5361)"><path
             d="m 0,0 h -39.118 c -7.013,0 -12.697,5.685 -12.697,12.697 v 0.011 c 0,7.012 5.684,12.696 12.697,12.696 H 0 c 7.013,0 12.697,-5.684 12.697,-12.696 V 12.697 C 12.697,5.685 7.013,0 0,0 Z"
             style="fill:none;stroke:#000000;stroke-width:15;stroke-linecap:round;stroke-linejoin:round;stroke-miterlimit:10;stroke-dasharray:none;stroke-opacity:1"
             id="path3944" /></g><g
           id="g3946"
           transform="translate(343.6309,272.667)"><path
             d="m 0,0 c 20.193,33.04 63.188,28.235 94.816,16.467 l 16.639,-23.942 c 0,0 -83.477,15.383 -91.909,-13.833 -3.155,-10.932 -13.141,-14.561 -22.868,-7.894 -24.351,16.691 -84.407,-46.465 -84.407,-46.465 v 30.106 C -64.724,-10.411 -35.955,11.67 0,0 Z"
             style="fill:none;stroke:#000000;stroke-width:15;stroke-linecap:round;stroke-linejoin:round;stroke-miterlimit:10;stroke-dasharray:none;stroke-opacity:1"
             id="path3948" /></g><g
           id="g3950"
           transform="translate(79.8843,235.5361)"><path
             d="m 0,0 h -39.119 c -7.012,0 -12.696,5.685 -12.696,12.697 v 0.011 c 0,7.012 5.684,12.696 12.696,12.696 H 0 c 7.012,0 12.697,-5.684 12.697,-12.696 V 12.697 C 12.697,5.685 7.012,0 0,0 Z"
             style="fill:none;stroke:#000000;stroke-width:15;stroke-linecap:round;stroke-linejoin:round;stroke-miterlimit:10;stroke-dasharray:none;stroke-opacity:1"
             id="path3952" /></g><g
           id="g3954"
           transform="translate(7.5,7.5)"><path
             d="M 0,0 V 22.879 H 497 V 0"
             style="fill:none;stroke:#000000;stroke-width:15;stroke-linecap:round;stroke-linejoin:round;stroke-miterlimit:10;stroke-dasharray:none;stroke-opacity:1"
             id="path3956" /></g><g
           id="g3958"
           transform="translate(226.0537,378.584)"><path
             d="m 0,0 17.706,-38.233 c 4.447,-9.603 18.108,-9.561 22.497,0.068 L 57.599,0 C 57.599,0 32.661,27.651 0,0 Z"
             style="fill:none;stroke:#000000;stroke-width:15;stroke-linecap:round;stroke-linejoin:round;stroke-miterlimit:10;stroke-dasharray:none;stroke-opacity:1"
             id="path3960" /></g></g></g></g></svg>
