<svg id="line" viewBox="0 0 64 64" xmlns="http://www.w3.org/2000/svg"><path d="m53.98926 22.93115c-2.77926-17.85058-21.14844-18.89453-21.98438-18.93115-.01855 0-.083.00195-.10156.00293a27.583 27.583 0 0 0 -10.08594 2.71387 20.89938 20.89938 0 0 0 -11.80468 16.20605 26.49719 26.49719 0 0 0 -.2793 4.14844v12.27344a1.00256 1.00256 0 0 0 .249.66064l3.00147 3.41205a19.91723 19.91723 0 0 0 3.74463 9.32184c3.583 4.7417 8.85937 7.25244 15.24511 7.25976l.03028.00049.03418-.00049c6.38867-.01318 11.65722-2.52343 15.23632-7.25976a19.91632 19.91632 0 0 0 3.74518-9.32575l2.998-3.40814a1.00256 1.00256 0 0 0 .249-.66064v-12.27344a26.45564 26.45564 0 0 0 -.27731-4.14014zm-39.21387 17.58106v-11.63621a20.168 20.168 0 0 1 .21-3.1626c2.11715-13.51662 16.09661-14.41408 17.01561-14.45705.91211.042 14.8955.91211 17.0166 14.457a20.168 20.168 0 0 1 .21 3.1626v11.63626c0 .60516-.03644 1.20465-.09119 1.80017l-2.38541 1.18323a8.69579 8.69579 0 0 1 -6.92871.4458 8.14231 8.14231 0 0 1 -2.45166-1.45417l-2.0589-10.76367c2.61145-1.59448 5.49176.87824 5.619.98932a1.00028 1.00028 0 0 0 1.32813-1.49609c-1.37177-1.21723-4.44055-2.84186-7.33942-1.54425l-.23663-1.23713c5.05633-2.64984 10.04248 1.82038 10.25964 2.02015a1.00035 1.00035 0 0 0 1.64837-.97557c-.78516-3.17334-2.35644-5.3374-4.66894-6.43213-3.74317-1.77344-8.19825-.05615-9.23536.39209h-1.38281c-1.03613-.44678-5.49512-2.1626-9.23535-.39209-2.3125 1.09473-3.88379 3.25879-4.66895 6.43213a1 1 0 0 0 1.64942.97461c.05267-.04889 5.17334-4.67255 10.2583-2.01752l-.23633 1.23529c-2.89831-1.29736-5.96759.32727-7.33935 1.54444a1.00027 1.00027 0 0 0 1.32812 1.49609c.03046-.02814 2.98254-2.59033 5.61871-.98822l-2.06005 10.77024a8.26177 8.26177 0 0 1 -2.93952 1.6203 8.57713 8.57713 0 0 1 -6.40723-.60839l-2.40472-1.19294c-.05487-.59607-.09137-1.19604-.09137-1.80169zm14.014 1.27588 2.61981-13.69361.00623-.03259.50164-2.62195h.156l.50079 2.61847c.002.01325.005.02576.00745.03894l2.61847 13.69074zm5.24713-16.731c1.37384-.50592 4.50006-1.39887 7.02985-.2016a5.73937 5.73937 0 0 1 2.42386 2.22851 10.40779 10.40779 0 0 0 -9.19885-.69476zm-4.33777 1.3324a10.3978 10.3978 0 0 0 -9.19875.69451 5.73945 5.73945 0 0 1 2.42383-2.22851c2.52881-1.19721 5.65576-.30444 7.02978.20148zm15.97996 25.14371c-3.22558 4.27002-7.80471 6.44532-13.65137 6.4668l-.03808-.001c-5.83106-.00683-10.42871-2.18213-13.665-6.46582a17.60649 17.60649 0 0 1 -3.08-6.79907l1.13861.5647a11.04274 11.04274 0 0 0 4.90326 1.18119 9.93747 9.93747 0 0 0 2.99414-.45752 10.18277 10.18277 0 0 0 3.89045-2.23248h7.65869a10.0339 10.0339 0 0 0 3.278 2.01953 10.69931 10.69931 0 0 0 8.53223-.522l1.11938-.55518a17.60543 17.60543 0 0 1 -3.08031 6.80085zm6.58789-12.56591-1.03906 1.181v-11.27229a22.1936 22.1936 0 0 0 -.2334-3.47217c-2.39355-15.28176-18.26367-16.11965-18.97266-16.14846-.02539 0-.0498 0-.07617.00147-.71386.0288-16.541.85791-18.93652 16.147a22.1936 22.1936 0 0 0 -.2334 3.47217v11.27566l-1.042-1.18438v-11.896a24.47632 24.47632 0 0 1 .25586-3.83936 18.74088 18.74088 0 0 1 10.71-14.72021 26.0184 26.0184 0 0 1 9.2695-2.51272c.71387.03272 17.51367.98633 20.044 17.24073a24.56659 24.56659 0 0 1 .2539 3.83154z"/><path d="m31.98535 21.39258a2.71143 2.71143 0 1 0 -2.71191-2.71143 2.714 2.714 0 0 0 2.71191 2.71143zm0-3.42285a.71143.71143 0 1 1 -.71191.71142.71237.71237 0 0 1 .71191-.71142z"/><path d="m42.749 34.96094a2.71143 2.71143 0 1 0 2.71192 2.71142 2.714 2.714 0 0 0 -2.71192-2.71142zm0 3.42285a.71143.71143 0 1 1 .71192-.71143.71237.71237 0 0 1 -.71192.71143z"/><path d="m21.24121 40.38379a2.71143 2.71143 0 1 0 -2.71191-2.71143 2.714 2.714 0 0 0 2.71191 2.71143zm0-3.42285a.71143.71143 0 1 1 -.71191.71142.71237.71237 0 0 1 .71191-.71142z"/><path d="m35.87207 46.69678a2.32636 2.32636 0 0 0 -2.61621-.37891l-1.04688.523a.32338.32338 0 0 1 -.28222 0l-1.0459-.523a2.323 2.323 0 0 0 -2.61621.3794l-.8086.75586a2.31514 2.31514 0 0 0 -.085 3.29882 6.47367 6.47367 0 0 0 4.69629 1.99512h.001a6.4737 6.4737 0 0 0 4.69729-1.99507 2.315 2.315 0 0 0 -.085-3.29882zm-.5459 2.6665a4.492 4.492 0 0 1 -3.25781 1.38379h-.001a4.49251 4.49251 0 0 1 -3.25781-1.38428.3155.3155 0 0 1 .01172-.44873l.80957-.75586a.31507.31507 0 0 1 .35547-.05127l1.04687.52344a2.32809 2.32809 0 0 0 2.07032-.00049l1.04687-.523.001-.00048a.31707.31707 0 0 1 .35547.05175l.80859.75586a.31258.31258 0 0 1 .09863.22217.3085.3085 0 0 1 -.08789.2271z"/></svg>