<svg enable-background="new 0 0 64 64" height="512" viewBox="0 0 64 64" width="512" xmlns="http://www.w3.org/2000/svg"><g id="quiz"><g><g><path clip-rule="evenodd" d="m9.4314 26.1213v35.8787h39.3325v-23.4906l-6.2233 4.7196.6029-8.0982 5.6204-10.3367v-16.0577h-27.9704c-3.1256-1.8123-13.2887 12.0935-11.3621 17.3849z" fill="#eee" fill-rule="evenodd"/></g><g><path clip-rule="evenodd" d="m48.7638 8.7364h-17.6616c7.6614 15.084 7.249 39.6107-3.7527 53.2636h21.4144c-.0001-23.4178-.0001-22.652-.0001-53.2636z" fill="#d4d4d4" fill-rule="evenodd"/></g><g><path clip-rule="evenodd" d="m43.1434 35.1308-.6029 8.0982 6.2233-4.7196.2495-.1871-2.1483-1.9579z" fill="#ffd9b8" fill-rule="evenodd"/></g><g><path clip-rule="evenodd" d="m52.4854 17.9538 1.7187 3.1949h4.1512l1.8954-3.4825c.8767-1.6148.2737-3.6558-1.341-4.5325-1.6147-.8802-3.6522-.2772-4.5324 1.3376z" fill="#ff335c" fill-rule="evenodd"/></g><g><path clip-rule="evenodd" d="m13.839 27.0881c5.7971 0 10.4958-4.6988 10.4958-10.4926 0-3.1291-1.3687-5.9359-3.5413-7.8591-.1871-.1663-.3846-.3292-.5856-.4851-1.7672-1.348-3.9745-2.1519-6.3689-2.1519s-4.6017.8039-6.3654 2.1518c-2.5087 1.9197-4.1269 4.9414-4.1269 8.3442 0 4.2206 2.4914 7.8625 6.0847 9.5258 1.341.6204 2.8344.9669 4.4076.9669z" fill="#81d4fa" fill-rule="evenodd"/></g><g><path clip-rule="evenodd" d="m46.2863 37.1614-3.4928 2.6474-.253 3.4202 6.2233-4.7196.2495-.1871-2.481-1.348z" fill="#fcc492" fill-rule="evenodd"/></g><g><path clip-rule="evenodd" d="m55.8742 19.8008 2.481 1.348 1.8954-3.4825c.8767-1.6148.2737-3.6558-1.341-4.5325-.4401-.2426-.9148-.3708-1.3895-.3985.745 1.0118.8871 2.4083.2495 3.583z" fill="#eb1741" fill-rule="evenodd"/></g><g><path clip-rule="evenodd" d="m21.1365 16.2974c0 4.6815-3.0632 8.6457-7.2975 9.9971-.8178.2634-1.6771.4262-2.5676.4782.8212.2079 1.6806.3153 2.5676.3153 5.7971 0 10.4958-4.6988 10.4958-10.4926 0-3.1291-1.3687-5.9359-3.5413-7.8591-.1871-.1663-.3846-.3292-.5856-.4851-1.7672-1.348-3.9745-2.1519-6.3689-2.1519-.2114 0-.4193.0069-.6272.0208.2114.052.4227.1109.6272.1767 1.1573.3708 2.2281.9356 3.1706 1.6564.2044.1559.3985.3188.5891.4851.2807.2495.5475.5129.8004.7901 1.7013 1.8643 2.7374 4.3454 2.7374 7.069z" fill="#4fc3f7" fill-rule="evenodd"/></g><g><path clip-rule="evenodd" d="m43.1434 35.1308 5.8699 3.1915 9.342-17.1736-5.8699-3.1949-3.7216 6.8403z" fill="#ffd54f" fill-rule="evenodd"/></g><g><path clip-rule="evenodd" d="m42.669 27.65h19.55v2.824h-19.55z" fill="#ffc107" fill-rule="evenodd" transform="matrix(.478 -.878 .878 .478 1.855 61.243)"/></g><g><path clip-rule="evenodd" d="m13.839 19.1424c1.4068 0 2.5503-1.1401 2.5503-2.5469 0-.9737-.544-1.8158-1.3445-2.2455-.3604-.1941-.7693-.3049-1.2059-.3049-1.4068 0-2.5469 1.1435-2.5469 2.5504.0001 1.4068 1.1402 2.5469 2.547 2.5469z" fill="#ff335c" fill-rule="evenodd"/></g><g><path d="m20.4814 32.0068h17.2354c.5527 0 1-.4473 1-1s-.4473-1-1-1h-17.2354c-.5527 0-1 .4473-1 1s.4473 1 1 1z"/><path d="m42.54 48.3418h-26.8818c-.5527 0-1 .4473-1 1s.4473 1 1 1h26.8818c.5527 0 1-.4473 1-1s-.4472-1-1-1z"/><path d="m13.8389 20.1426c1.958 0 3.5508-1.5908 3.5508-3.5469 0-.9876-.4067-1.8807-1.0596-2.5249l1.3731-2.5562c.2617-.4873.0791-1.0928-.4072-1.3545-.4902-.2637-1.0938-.0791-1.3545.4072l-1.3723 2.5546c-.236-.0496-.4798-.0771-.7302-.0771-1.9561 0-3.5469 1.5928-3.5469 3.5508-.0001 1.9562 1.5907 3.547 3.5468 3.547zm0-5.0977c.8555 0 1.5508.6953 1.5508 1.5508 0 .8525-.6953 1.5469-1.5508 1.5469-.8525 0-1.5469-.6943-1.5469-1.5469 0-.8555.6943-1.5508 1.5469-1.5508z"/><path d="m59.3887 12.2559c-2.1025-1.1465-4.7422-.3643-5.8906 1.7383l-3.7344 6.8679v-12.1258c0-.5527-.4473-1-1-1h-26.8155l.8858-1.0527c.3555-.4219.3008-1.0527-.1221-1.4092-.4229-.3555-1.0537-.2988-1.4092.1221l-1.2814 1.5229c-1.5225-.9763-3.2855-1.6046-5.1825-1.7691v-2.1503h1.3701c.5527 0 1-.4473 1-1s-.4473-1-1-1h-4.7402c-.5527 0-1 .4473-1 1s.4473 1 1 1h1.3701v2.1503c-1.8962.1646-3.6583.7928-5.1801 1.7689l-1.2847-1.5237c-.3554-.4219-.9863-.4766-1.4092-.1201-.4218.3564-.4755.9873-.1201 1.4092l1.2307 1.4595c-2.2856 2.1026-3.7288 5.108-3.7288 8.4516 0 4.3827 2.4677 8.1973 6.085 10.1351v35.2692c0 .5527.4473 1 1 1h39.332c.5527 0 1-.4473 1-1v-23.0255c.047-.054.0933-.1091.1289-.1747l11.2373-20.6572c1.1417-2.1035.3604-4.7451-1.7411-5.8867zm-15.6866 28.8369.3238-4.3437 3.149 1.712zm4.9111-4.1268-4.113-2.2361 8.3846-15.4207 4.1154 2.2394zm-44.2127-19.3703h1.2607c.5527 0 1-.4473 1-1s-.4473-1-1-1h-1.2608c.4667-4.4388 4.0014-7.9753 8.4385-8.4423v1.2646c0 .5527.4473 1 1 1s1-.4473 1-1v-1.2646c4.439.4668 7.9755 4.0034 8.4423 8.4423h-1.2646c-.5527 0-1 .4473-1 1s.4473 1 1 1h1.2645c-.467 4.4371-4.0034 7.9718-8.4423 8.4385v-1.2607c0-.5527-.4473-1-1-1s-1 .4473-1 1v1.2607c-4.4369-.4668-7.9716-4.0015-8.4383-8.4385zm6.0311 43.4043v-33.428c1.077.335 2.2214.5159 3.4072.5159 6.3389 0 11.4961-5.1553 11.4961-11.4922 0-2.5723-.8597-4.9419-2.2925-6.8594h24.7213v14.8037l-.0004.0007-5.4987 10.1125c-.0684.1259-.1042.2597-.1154.3939-.0003.0033-.0025.0062-.0027.0095l-.079 1.0596h-26.4093c-.5527 0-1 .4473-1 1s.4473 1 1 1h26.2603l-.3065 4.1123h-25.9538c-.5527 0-1 .4473-1 1s.4473 1 1 1h26.8818c.1675 0 .4533-.0884.6045-.2031l4.6191-3.5008v20.4754zm48.9405-43.8115-1.4167 2.6044-4.1158-2.2397 1.4153-2.603c.6191-1.1328 2.0439-1.5566 3.1777-.9375 1.1338.6162 1.5557 2.041.9395 3.1758z"/><path d="m32.4814 18.9541h10.0586c.5527 0 1-.4473 1-1s-.4473-1-1-1h-10.0586c-.5527 0-1 .4473-1 1s.4473 1 1 1z"/></g></g></g></svg>