<svg height="512" viewBox="0 0 128 128" width="512" xmlns="http://www.w3.org/2000/svg"><g><g><rect fill="#ff641a" height="32.766" rx="7" width="32.766" x="1.75" y="52.198"/><rect fill="#6aa9ff" height="32.766" rx="7" width="32.766" x="1.75" y="93.484"/><rect fill="#fed843" height="32.766" rx="7" width="32.767" x="68.962" y="52.198"/><path d="m75.962 93.484h18.767a7 7 0 0 1 7 7v16.766a9 9 0 0 1 -9 9h-16.767a7 7 0 0 1 -7-7v-18.766a7 7 0 0 1 7-7z" fill="#97de3d"/><path d="m1.75 1.75h124.5v42.25h-124.5z" fill="#6aa9ff"/><g fill="#fff5f5"><path d="m24.8 8h-9.05a7.759 7.759 0 0 0 -7.75 7.75v11.25a10.762 10.762 0 0 0 10.75 10.75h3.05a10.683 10.683 0 0 0 6.449-2.169l1.174 1.5a1.75 1.75 0 0 0 2.755-2.158l-1.478-1.894a10.688 10.688 0 0 0 1.852-6.029v-11.25a7.758 7.758 0 0 0 -7.752-7.75zm-3.147 13.483a1.75 1.75 0 0 0 -2.753 2.159l7.2 9.187a7.2 7.2 0 0 1 -4.3 1.421h-3.05a7.258 7.258 0 0 1 -7.25-7.25v-11.25a4.255 4.255 0 0 1 4.25-4.25h9.05a4.255 4.255 0 0 1 4.25 4.25v11.25a7.2 7.2 0 0 1 -.684 3.055z"/><path d="m59.952 8a1.75 1.75 0 0 0 -1.752 1.75v20.25a4.255 4.255 0 0 1 -4.25 4.25h-9.05a4.255 4.255 0 0 1 -4.251-4.25v-20.25a1.75 1.75 0 0 0 -3.5 0v20.25a7.759 7.759 0 0 0 7.75 7.75h9.053a7.759 7.759 0 0 0 7.748-7.75v-20.25a1.751 1.751 0 0 0 -1.748-1.75z"/><path d="m118.25 28.125a1.751 1.751 0 0 0 -1.75 1.75v4.375h-15.655l18.77-23.4a1.75 1.75 0 0 0 -1.365-2.85h-21.05a1.75 1.75 0 0 0 -1.75 1.75v6.125a1.75 1.75 0 0 0 3.5 0v-4.375h15.65l-18.767 23.405a1.75 1.75 0 0 0 1.367 2.845h21.05a1.751 1.751 0 0 0 1.75-1.75v-6.125a1.751 1.751 0 0 0 -1.75-1.75z"/><path d="m89.1 8h-21.052a1.751 1.751 0 0 0 -1.748 1.75v6.125a1.75 1.75 0 0 0 3.5 0v-4.375h7.027v22.75h-7.027v-4.375a1.75 1.75 0 0 0 -3.5 0v6.125a1.751 1.751 0 0 0 1.75 1.75h21.05a1.751 1.751 0 0 0 1.751-1.75v-6.125a1.75 1.75 0 0 0 -3.5 0v4.375h-7.026v-22.75h7.026v4.375a1.75 1.75 0 0 0 3.5 0v-6.125a1.751 1.751 0 0 0 -1.751-1.75z"/></g><g fill="#fff5f5"><path d="m20.008 100.361h-6.75a1.751 1.751 0 0 0 -1.75 1.75v15.511a1.751 1.751 0 0 0 1.75 1.75h6.75a4.756 4.756 0 0 0 4.75-4.75v-1.755a4.7 4.7 0 0 0 -1.1-3 4.7 4.7 0 0 0 1.1-3v-1.756a4.756 4.756 0 0 0 -4.75-4.75zm-5 3.5h5a1.251 1.251 0 0 1 1.25 1.25v1.756a1.251 1.251 0 0 1 -1.25 1.25h-5zm6.25 10.761a1.251 1.251 0 0 1 -1.25 1.25h-5v-4.255h5a1.25 1.25 0 0 1 1.25 1.25z"/><path d="m83.854 78.086h5.746a1.75 1.75 0 0 0 0-3.5h-5.75a2.252 2.252 0 0 1 -2.25-2.25v-7.51a2.252 2.252 0 0 1 2.25-2.25h5.75a1.75 1.75 0 0 0 0-3.5h-5.75a5.757 5.757 0 0 0 -5.75 5.75v7.51a5.757 5.757 0 0 0 5.754 5.75z"/><path d="m19.008 59.076h-1.75a5.757 5.757 0 0 0 -5.75 5.75v11.51a1.75 1.75 0 0 0 3.5 0v-4.347h6.25v4.347a1.75 1.75 0 0 0 3.5 0v-11.51a5.757 5.757 0 0 0 -5.75-5.75zm-4 9.413v-3.663a2.253 2.253 0 0 1 2.25-2.25h1.75a2.252 2.252 0 0 1 2.25 2.25v3.663z"/><path d="m86.221 100.361h-5.75a1.75 1.75 0 0 0 -1.75 1.75v15.511a1.75 1.75 0 0 0 1.75 1.75h5.75a5.757 5.757 0 0 0 5.75-5.75v-7.511a5.757 5.757 0 0 0 -5.75-5.75zm2.25 13.261a2.253 2.253 0 0 1 -2.25 2.25h-4v-12.011h4a2.253 2.253 0 0 1 2.25 2.25z"/></g><g fill="#474f54"><path d="m34.516 61.555h24.521v14.052h-24.521z"/><path d="m34.516 102.841h24.521v14.052h-24.521z"/><path d="m101.729 61.555h24.521v14.052h-24.521z"/><path d="m101.729 102.841h24.521v14.052h-24.521z"/></g></g><g><path d="m126.25 0h-124.5a1.751 1.751 0 0 0 -1.75 1.75v42.25a1.751 1.751 0 0 0 1.75 1.75h92.46a1.75 1.75 0 0 0 0-3.5h-90.71v-38.75h121v38.75h-7.087a1.75 1.75 0 0 0 0 3.5h8.837a1.751 1.751 0 0 0 1.75-1.75v-42.25a1.751 1.751 0 0 0 -1.75-1.75z"/><path d="m103.326 42.25a1.75 1.75 0 0 0 0 3.5h4.974a1.75 1.75 0 0 0 0-3.5z"/><path d="m32.552 15.75a7.759 7.759 0 0 0 -7.752-7.75h-9.05a7.759 7.759 0 0 0 -7.75 7.75v11.25a10.762 10.762 0 0 0 10.75 10.75h3.05a10.683 10.683 0 0 0 6.449-2.169l1.174 1.5a1.75 1.75 0 0 0 2.755-2.158l-1.478-1.894a10.688 10.688 0 0 0 1.852-6.029zm-10.9 5.733a1.75 1.75 0 0 0 -2.752 2.159l7.2 9.187a7.2 7.2 0 0 1 -4.3 1.421h-3.05a7.258 7.258 0 0 1 -7.25-7.25v-11.25a4.255 4.255 0 0 1 4.25-4.25h9.05a4.255 4.255 0 0 1 4.25 4.25v11.25a7.2 7.2 0 0 1 -.684 3.055z"/><path d="m38.9 8a1.751 1.751 0 0 0 -1.75 1.75v20.25a7.759 7.759 0 0 0 7.75 7.75h9.053a7.759 7.759 0 0 0 7.747-7.75v-20.25a1.75 1.75 0 0 0 -3.5 0v20.25a4.255 4.255 0 0 1 -4.25 4.25h-9.05a4.255 4.255 0 0 1 -4.251-4.25v-20.25a1.75 1.75 0 0 0 -1.749-1.75z"/><path d="m95.62 36.757a1.75 1.75 0 0 0 1.578.993h21.052a1.751 1.751 0 0 0 1.75-1.75v-6.125a1.75 1.75 0 0 0 -3.5 0v4.375h-15.655l18.77-23.4a1.75 1.75 0 0 0 -1.365-2.85h-21.05a1.75 1.75 0 0 0 -1.75 1.75v6.125a1.75 1.75 0 0 0 3.5 0v-4.375h15.65l-18.767 23.405a1.751 1.751 0 0 0 -.213 1.852z"/><path d="m89.1 17.625a1.751 1.751 0 0 0 1.75-1.75v-6.125a1.751 1.751 0 0 0 -1.75-1.75h-21.052a1.751 1.751 0 0 0 -1.748 1.75v6.125a1.75 1.75 0 0 0 3.5 0v-4.375h7.027v22.75h-7.027v-4.375a1.75 1.75 0 0 0 -3.5 0v6.125a1.751 1.751 0 0 0 1.75 1.75h21.05a1.751 1.751 0 0 0 1.751-1.75v-6.125a1.75 1.75 0 0 0 -3.5 0v4.375h-7.026v-22.75h7.026v4.375a1.75 1.75 0 0 0 1.749 1.75z"/><path d="m24.758 105.111a4.756 4.756 0 0 0 -4.75-4.75h-6.75a1.751 1.751 0 0 0 -1.75 1.75v15.511a1.751 1.751 0 0 0 1.75 1.75h6.75a4.756 4.756 0 0 0 4.75-4.75v-1.755a4.7 4.7 0 0 0 -1.1-3 4.7 4.7 0 0 0 1.1-3zm-9.75-1.25h5a1.251 1.251 0 0 1 1.25 1.25v1.756a1.251 1.251 0 0 1 -1.25 1.25h-5zm6.25 10.761a1.251 1.251 0 0 1 -1.25 1.25h-5v-4.255h5a1.25 1.25 0 0 1 1.25 1.25z"/><path d="m83.854 62.576h5.746a1.75 1.75 0 0 0 0-3.5h-5.75a5.757 5.757 0 0 0 -5.75 5.75v7.51a5.757 5.757 0 0 0 5.75 5.75h5.75a1.75 1.75 0 0 0 0-3.5h-5.75a2.252 2.252 0 0 1 -2.25-2.25v-7.51a2.252 2.252 0 0 1 2.254-2.25z"/><path d="m19.008 59.076h-1.75a5.757 5.757 0 0 0 -5.75 5.75v11.51a1.75 1.75 0 0 0 3.5 0v-4.347h6.25v4.347a1.75 1.75 0 0 0 3.5 0v-11.51a5.756 5.756 0 0 0 -5.75-5.75zm-4 9.413v-3.663a2.253 2.253 0 0 1 2.25-2.25h1.75a2.252 2.252 0 0 1 2.25 2.25v3.663z"/><path d="m86.221 100.361h-5.75a1.75 1.75 0 0 0 -1.75 1.75v15.511a1.75 1.75 0 0 0 1.75 1.75h5.75a5.757 5.757 0 0 0 5.75-5.75v-7.511a5.757 5.757 0 0 0 -5.75-5.75zm2.25 13.261a2.253 2.253 0 0 1 -2.25 2.25h-4v-12.011h4a2.253 2.253 0 0 1 2.25 2.25z"/><path d="m59.038 59.805h-22.771v-.605a8.76 8.76 0 0 0 -8.75-8.75h-18.767a8.76 8.76 0 0 0 -8.75 8.75v18.764a8.76 8.76 0 0 0 8.75 8.75h18.767a8.76 8.76 0 0 0 8.75-8.75v-.607h22.771a1.75 1.75 0 0 0 1.75-1.75v-14.052a1.751 1.751 0 0 0 -1.75-1.75zm-26.271 18.159a5.256 5.256 0 0 1 -5.25 5.25h-18.767a5.256 5.256 0 0 1 -5.25-5.25v-18.764a5.256 5.256 0 0 1 5.25-5.25h18.767a5.256 5.256 0 0 1 5.25 5.25zm24.521-4.107h-21.021v-10.552h21.021z"/><path d="m59.038 101.091h-22.771v-.608a8.761 8.761 0 0 0 -8.75-8.75h-18.767a8.78 8.78 0 0 0 -7.95 5.085 1.75 1.75 0 1 0 3.18 1.468 5.273 5.273 0 0 1 4.77-3.053h18.767a5.256 5.256 0 0 1 5.25 5.25v18.767a5.256 5.256 0 0 1 -5.25 5.25h-18.767a5.256 5.256 0 0 1 -5.25-5.25v-12.581a1.75 1.75 0 0 0 -3.5 0v12.581a8.76 8.76 0 0 0 8.75 8.75h18.767a8.76 8.76 0 0 0 8.75-8.75v-.607h22.771a1.751 1.751 0 0 0 1.75-1.75v-14.052a1.75 1.75 0 0 0 -1.75-1.75zm-1.75 14.052h-21.021v-10.552h21.021z"/><path d="m126.25 59.805h-22.771v-.605a8.76 8.76 0 0 0 -8.75-8.75h-18.767a8.76 8.76 0 0 0 -8.75 8.75v18.764a8.76 8.76 0 0 0 8.75 8.75h18.767a8.76 8.76 0 0 0 8.75-8.75v-.607h22.771a1.75 1.75 0 0 0 1.75-1.75v-14.052a1.751 1.751 0 0 0 -1.75-1.75zm-26.271 18.159a5.256 5.256 0 0 1 -5.25 5.25h-18.767a5.256 5.256 0 0 1 -5.25-5.25v-18.764a5.256 5.256 0 0 1 5.25-5.25h18.767a5.256 5.256 0 0 1 5.25 5.25zm24.521-4.107h-21.021v-10.552h21.021z"/><path d="m126.25 101.091h-22.771v-.608a8.76 8.76 0 0 0 -8.75-8.75h-18.767a8.761 8.761 0 0 0 -8.75 8.75v18.767c0 7.613 4.229 8.75 6.75 8.75h18.767c4.869 0 10.75-3.9 10.75-8.75v-.607h22.771a1.751 1.751 0 0 0 1.75-1.75v-14.052a1.75 1.75 0 0 0 -1.75-1.75zm-26.271 18.159c0 2.654-4.151 5.25-7.25 5.25h-18.767c-1.054 0-3.25 0-3.25-5.25v-18.767a5.256 5.256 0 0 1 5.25-5.25h18.767a5.256 5.256 0 0 1 5.25 5.25zm24.521-4.107h-21.021v-10.552h21.021z"/></g></g></svg>