<svg height="512" viewBox="0 0 64 64" width="512" xmlns="http://www.w3.org/2000/svg"><g id="Location_Color_Line_Create_Outline" data-name="Location_Color Line Create Outline"><g id="_19_Flag" data-name="19_Flag"><path d="m49 27h-34l8-13-8-13h34z" fill="#db4437"/><path d="m46 1v1a22 22 0 0 1 -22 22h-7.154l-1.846 3h34v-26z" fill="#c62e26"/><path d="m49 28h-16a1 1 0 0 1 0-2h15v-24h-31.21l7.062 11.476a1 1 0 0 1 0 1.048l-7.062 11.476h10.21a1 1 0 0 1 0 2h-12a1 1 0 0 1 -.852-1.524l7.678-12.476-7.678-12.476a1 1 0 0 1 .852-1.524h34a1 1 0 0 1 1 1v26a1 1 0 0 1 -1 1z" fill="#252526"/><path d="m49 57-2 6-2-6v-56h4z" fill="#e6e6e6"/><path d="m47 1v62l2-6v-56z" fill="#bbbcbb"/><path d="m47 64a1 1 0 0 1 -.949-.684l-2-6a1 1 0 0 1 -.051-.316v-56a1 1 0 0 1 1-1h4a1 1 0 0 1 1 1v56a1 1 0 0 1 -.051.316l-2 6a1 1 0 0 1 -.949.684zm-1-7.162 1 3 1-3v-54.838h-2z" fill="#252526"/></g></g></svg>