<svg xmlns="http://www.w3.org/2000/svg" version="1.1" xmlns:xlink="http://www.w3.org/1999/xlink" width="512" height="512" x="0" y="0" viewBox="0 0 512 512" style="enable-background:new 0 0 512 512" xml:space="preserve" class=""><g><path d="M297.189 7.5a6 6 0 0 0-5.128 2.886l-23.212 38.223-5.253 27.612 13.614 19.294 23.52 4.911 44.627-76.691L348.815 7.5h-51.626z" style="" fill="#fe646f" data-original="#fe646f"></path><path d="m268.848 48.608-24.25 37.76 26.996 44.815 18.496-4.458 6.439-33.127z" style="" fill="#fd4755" data-original="#fd4755"></path><path d="M393.408 9.466 375.694 7.5h-26.879l-52.286 86.098-4.276 16.007 21.617 30.385 81.248-127.486c.808-1.332-.151-3.038-1.71-3.038z" style="" fill="#95c5f9" data-original="#95c5f9" class=""></path><path d="M400.171 7.5h-27.003c1.559 0 2.519 1.705 1.709 3.038l-58.997 97.148c-2.426 3.994-8.217 4.011-10.665.031l-8.687-14.119-26.828 44.176 22.552 8.819 21.82 8.533 87.807-144.589c.811-1.332-.149-3.037-1.708-3.037z" style="" fill="#7fb2ea" data-original="#7fb2ea"></path><path d="M355.238 449.154c-59.13 59.14-164.176 56.164-205.514 14.826-1.757-1.757-1.414-5.806-3.194-7.585-1.78-1.78-5.746-1.185-7.416-3.025-15.47-17-26.51-36.59-33.11-57.29-.755-2.358 2.549-4.729 1.911-7.11-.655-2.445-5.249-4.903-5.781-7.37a156.748 156.748 0 0 1 0-66.18c.545-2.533 4.155-5.052 4.829-7.558.625-2.322-1.695-4.633-.959-6.932 6.61-20.7 17.64-40.3 33.11-57.3 1.68-1.84 7.948-.685 9.728-2.465 1.78-1.78-.958-6.465.882-8.135 17-15.47 36.59-26.51 57.29-33.12 2.377-.761 4.767 1.54 7.169.899 2.428-.648 4.868-4.237 7.321-4.769 21.78-4.71 44.39-4.71 66.17 0 2.387.514 4.764 4.085 7.13 4.713 2.471.656 4.928-1.625 7.37-.843 22.94 7.32 38.529 21.335 54.411 41.59 46.599 59.43 59.573 146.734-1.347 207.654z" style="" fill="#f8feff" data-original="#f8feff" class=""></path><path d="M402.414 388.45c-.68 2.56 1.58 5.1.77 7.63-6.61 20.7-17.65 40.3-33.11 57.3-1.68 1.84-7.122.354-8.902 2.134-1.78 1.78.132 6.796-1.708 8.476-17 15.46-36.59 26.5-57.29 33.11-2.32.74-4.66-1.57-7.01-.94-2.48.67-4.97 4.27-7.48 4.81a156.539 156.539 0 0 1-66.17-.01c-2.23-.48-4.45-4-6.66-4.58-2.63-.69-5.24 1.55-7.84.72-20.75-6.63-40.26-17.6-57.29-33.12 24.99 4.01 49.27-2.3 68.1-7.23l.13-.03c5.79-1.51 11.38-3.25 16.81-5.24 19.9-7.28 37.63-18.15 55.13-35.67 36.45-36.51 48.76-85.09 42.73-134.76a217.7 217.7 0 0 0-3.01-18.17c-.04-.2-.09-.41-.13-.61-2.41-11.38-4.75-20.55-8.72-30.09-3.97-9.54-9.59-19.44-18.59-32.27 20.7 6.61 40.29 17.65 57.29 33.12 1.84 1.67 1.73 6.02 3.51 7.8 1.78 1.78 5.43.97 7.1 2.81 15.47 17 26.51 36.59 33.11 57.29.77 2.39-1.53 4.79-.89 7.21.65 2.41 4.23 4.84 4.76 7.28 4.71 21.79 4.71 44.38 0 66.17-.49 2.3-4.04 4.59-4.64 6.86z" style="" fill="#a7efa9" data-original="#dff8ff" class="" opacity="1"></path><path d="M336.658 275.43c44.607 44.607 28.115 106.633-16.492 151.239-31.757 31.757-76.206 38.878-102.215 30.048a114.109 114.109 0 0 1-44.125-27.445c-44.607-44.607-44.607-116.928 0-161.535 42.699-42.699 110.788-44.521 155.659-5.473 2.005 1.745 5.266 11.259 7.173 13.166z" style="" fill="#a7efa9" data-original="#dff8ff" class="" opacity="1"></path><path d="M335.362 267.739a115.994 115.994 0 0 0-5.876-5.474c11.888 56.033 1.448 112.449-39.594 153.541-22.279 22.306-44.93 33.845-71.94 40.912 39.851 13.462 85.652 4.313 117.41-27.445 44.606-44.606 44.606-116.928 0-161.534z" style="" fill="#a3d3a4" data-original="#b6e9ff" class="" opacity="1"></path><path d="M109.041 7.5c-1.564 0-2.523 1.715-1.703 3.048l93.409 151.853a10.274 10.274 0 0 0 8.782 4.941h49.156v-10.483L169.41 11.71l-9.037-4.21h-51.332z" style="" fill="#fd8087" data-original="#fd8087"></path><path d="M303.521 156.8 213.809 12.725a5.999 5.999 0 0 0-5.11-2.856L187.044 7.5h-26.671l98.312 159.842h21.47l18.975-2.738c4.005-.001 6.47-4.381 4.391-7.804z" style="" fill="#abd5ff" data-original="#abd5ff"></path><path d="M308.922 159.538 217.133 10.356a5.999 5.999 0 0 0-5.11-2.856H185.02a5.999 5.999 0 0 1 5.11 2.856l91.789 149.182c2.079 3.424-.385 7.804-4.391 7.804h27.003c4.005 0 6.47-4.38 4.391-7.804z" style="" fill="#95c5f9" data-original="#95c5f9" class=""></path><path d="M103.601 349.781c-24.502 12.028-25.403 13.553-37.431 38.055-4.946-10.076-9.331-9.429-14.692-15.7-7.025-8.219-15.422-14.188-27.858-20.571-1.453-.746-1.454-2.819-.001-3.565 20.777-10.664 30.282-20.169 40.946-40.946.746-1.453 2.819-1.453 3.565 0 6.26 12.194 12.122 20.504 20.096 27.446 6.363 5.539 5.042 10.209 15.375 15.281z" style="" fill="#fff48f" data-original="#fff48f" class=""></path><path d="M88.226 334.5c-17.18 9.847-26.903 19.864-36.748 37.635 4.711 5.512 8.806 12.034 13.087 20.374.746 1.453 2.819 1.454 3.565.001 10.664-20.776 20.169-30.281 40.944-40.945 1.455-.747 1.456-2.819.001-3.566-8.581-4.406-15.237-8.614-20.849-13.499z" style="" fill="#fee45a" data-original="#fee45a"></path><path d="M486.559 448.16c-21.408 10.509-22.195 11.841-32.704 33.249-4.322-8.803-8.153-8.239-12.836-13.718-6.138-7.181-13.475-12.396-24.34-17.974-1.27-.652-1.27-2.463-.001-3.115 18.153-9.317 26.458-17.622 35.775-35.775.652-1.27 2.463-1.269 3.115 0 5.469 10.655 10.591 17.915 17.558 23.98 5.56 4.841 4.406 8.921 13.433 13.353z" style="" fill="#fff48f" data-original="#fff48f" class=""></path><path d="M473.127 434.809c-15.011 8.604-23.505 17.355-32.108 32.883 4.116 4.816 7.694 10.514 11.434 17.801.652 1.27 2.463 1.27 3.115.001 9.317-18.152 17.622-26.457 35.774-35.775 1.271-.652 1.272-2.463.001-3.116-7.498-3.849-13.313-7.526-18.216-11.794z" style="" fill="#fee45a" data-original="#fee45a"></path><path d="M395.898 232.082c-16.364 8.033-16.966 9.051-24.999 25.415-3.304-6.729-6.232-6.298-9.812-10.486-4.692-5.489-10.3-9.476-18.605-13.739a1.337 1.337 0 0 1 0-2.381c13.876-7.122 20.224-13.47 27.346-27.346.498-.971 1.883-.97 2.381 0 4.181 8.144 8.096 13.694 13.422 18.33 4.249 3.7 3.367 6.819 10.267 10.207z" style="" fill="#fff48f" data-original="#fff48f" class=""></path><path d="M385.63 221.876c-11.474 6.577-17.967 13.266-24.543 25.135 3.147 3.681 5.881 8.037 8.74 13.607a1.337 1.337 0 0 0 2.381 0c7.122-13.876 13.47-20.224 27.345-27.346a1.338 1.338 0 0 0 .001-2.382c-5.731-2.941-10.176-5.751-13.924-9.014z" style="" fill="#fee45a" data-original="#fee45a"></path><path d="M286.093 393.163h-31.018c-1.621 0-2.569-1.828-1.635-3.152l25.324-35.917c.067-.095.132-.19.196-.287 9.506-14.323 16.599-26.609 14.365-43.327-2.67-19.982-20.455-35.05-41.371-35.05-19.999 0-37.308 14.228-41.158 33.83-1.31 6.67 3.035 13.139 9.706 14.449 6.668 1.305 13.139-3.036 14.449-9.706 1.588-8.087 8.739-13.957 17.003-13.957 8.774 0 15.91 5.759 16.97 13.695 1.005 7.511-1.846 13.44-10.38 26.311l-40.922 58.038c-2.26 3.205-3.075 7.293-1.9 11.035a12.313 12.313 0 0 0 11.756 8.655H286.5c6.874 0 12.433-5.636 12.306-12.539-.123-6.776-5.936-12.078-12.713-12.078z" style="" fill="#f8feff" data-original="#f8feff" class=""></path><path d="M283.268 115.434 348.815 7.5M293.813 7.5l-39.219 64.579M403.724 7.5l-26.96 44.39M358.594 81.81l-44.52 73.32M177.724 210.404V166.75c0-6.148 4.984-11.132 11.132-11.132h5.59M306.658 155.618h13.675c6.148 0 11.132 4.984 11.132 11.132v43.654M158.014 94.04 105.464 7.5" style="stroke-width:15;stroke-linecap:round;stroke-linejoin:round;stroke-miterlimit:10;" fill="none" stroke="#000000" stroke-width="15" stroke-linecap="round" stroke-linejoin="round" stroke-miterlimit="10" data-original="#000000" class=""></path><path d="m176.184 123.96 24.56 38.44c1.87 3.07 5.2 4.94 8.78 4.94h95.01c4 0 6.47-4.38 4.39-7.8l-54.33-87.46-39.22-64.58M131.294 444.09a157.37 157.37 0 0 0 13 14.72c60.91 60.92 159.69 60.92 220.6 0 26.54-26.54 41.51-60.26 44.93-94.9M98.913 338.649c2.303-36.575 17.43-72.497 45.382-100.449 56.44-56.44 145.36-60.59 206.58-12.45M113.064 414.19c-8.232-17.733-12.95-36.697-14.153-55.841M409.354 328.91c-3.4-27.04-13.87-53.36-31.43-75.95" style="stroke-width:15;stroke-linecap:round;stroke-linejoin:round;stroke-miterlimit:10;" fill="none" stroke="#000000" stroke-width="15" stroke-linecap="round" stroke-linejoin="round" stroke-miterlimit="10" data-original="#000000" class=""></path><circle cx="254.594" cy="348.506" r="114.222" style="stroke-width:15;stroke-linecap:round;stroke-linejoin:round;stroke-miterlimit:10;" fill="none" stroke="#000000" stroke-width="15" stroke-linecap="round" stroke-linejoin="round" stroke-miterlimit="10" data-original="#000000" class=""></circle><path d="m145.313 239.224 27.474 27.475M105.313 308.506l37.531 10.056M105.313 388.506l37.531-10.057M145.313 457.787l27.474-27.474M214.594 497.787l10.057-37.53M294.594 497.787l-10.056-37.53M363.876 457.787l-27.475-27.474M403.876 388.506l-37.531-10.057M403.876 308.506l-37.531 10.056M357.932 245.168l-21.531 21.531M294.594 199.225l-10.056 37.53M214.594 199.225l10.057 37.53M287.661 394.797h-36.672l28.631-40.607c.07-.098.137-.197.204-.298 9.88-14.887 17.253-27.656 14.93-45.032-2.775-20.768-21.261-36.43-42.999-36.43-20.786 0-38.777 14.788-42.778 35.161-1.362 6.933 3.155 13.656 10.088 15.018 6.93 1.357 13.656-3.156 15.018-10.088 1.651-8.405 9.083-14.506 17.673-14.506 9.119 0 16.537 5.986 17.638 14.234 1.044 7.806-1.919 13.969-10.788 27.346l-42.745 60.623a12.793 12.793 0 0 0 10.455 20.164h61.346c7.065 0 12.793-5.728 12.793-12.793-.001-7.064-5.728-12.792-12.794-12.792zM400.283 232.082c-15.493 7.606-21.659 13.771-29.264 29.264-7.606-15.493-13.771-21.659-29.264-29.264 15.493-7.606 21.659-13.771 29.264-29.264 7.605 15.492 13.771 21.658 29.264 29.264zM256.594 165.943 160.373 7.5M112.629 348.506c-24.502 12.028-34.253 21.779-46.281 46.281-12.028-24.502-21.779-34.253-46.281-46.281 24.502-12.028 34.253-21.779 46.281-46.281 12.028 24.501 21.779 34.252 46.281 46.281zM491.934 448.16c-20.268 9.95-28.335 18.016-38.285 38.285-9.95-20.268-18.016-28.335-38.285-38.285 20.268-9.95 28.335-18.016 38.285-38.285 9.95 20.269 18.017 28.335 38.285 38.285z" style="stroke-width:15;stroke-linecap:round;stroke-linejoin:round;stroke-miterlimit:10;" fill="none" stroke="#000000" stroke-width="15" stroke-linecap="round" stroke-linejoin="round" stroke-miterlimit="10" data-original="#000000" class=""></path></g></svg>