<svg xmlns="http://www.w3.org/2000/svg" version="1.1" xmlns:xlink="http://www.w3.org/1999/xlink" width="512" height="512" x="0" y="0" viewBox="0 0 64 64" style="enable-background:new 0 0 512 512" xml:space="preserve" class=""><g><path fill="#b4babb" d="M62 30v26H24V2h26l12 12v6" opacity="1" data-original="#b4babb"></path><path fill="#dfdfdf" d="M27 2v46a5 5 0 0 0 5 5h30V14L50 2z" opacity="1" data-original="#dfdfdf"></path><path fill="#596a72" d="M62 14H50V2" opacity="1" data-original="#596a72" class=""></path><path fill="#e8a885" d="M8 50h2l4.92-6.325a14.354 14.354 0 0 0 2.745-5.997 2.086 2.086 0 0 1 3.911-.525c.279.557.424 1.171.424 1.794 0 1.35-.314 2.682-.918 3.89L20 45h6a2 2 0 1 1 0 4 2 2 0 1 1 0 4 2 2 0 1 1 0 4 2 2 0 1 1 0 4h-9.528c-2.941 0-5.842-.685-8.472-2" opacity="1" data-original="#e8a885" class=""></path><path fill="#f6ba91" d="M28 47a2 2 0 0 0-2-2h-6l1.082-2.163a8.698 8.698 0 0 0 .918-3.89c0-.622-.145-1.236-.423-1.793a2.086 2.086 0 0 0-3.912.523 14.354 14.354 0 0 1-2.745 5.997L10 50H9v7c2.63 1.315 5.531 2 8.472 2H27c.355 0 .684-.1.973-.263A1.993 1.993 0 0 0 26 57a2 2 0 1 0 0-4 2 2 0 1 0 0-4 2 2 0 0 0 2-2z" opacity="1" data-original="#f6ba91" class=""></path><circle cx="52" cy="46" r="6" fill="#3f4898" opacity="1" data-original="#3f986c" class=""></circle><path fill="#649dff" d="M52 40a5.974 5.974 0 0 0-3.71 1.29A5.974 5.974 0 0 0 47 45a6 6 0 0 0 6 6 5.974 5.974 0 0 0 3.71-1.29A5.974 5.974 0 0 0 58 46a6 6 0 0 0-6-6z" opacity="1" data-original="#79bf9d" class=""></path><g fill="#fff"><path d="M51 49a.995.995 0 0 1-.707-.293l-2-2 1.414-1.414 1.21 1.21 3.302-4.128 1.562 1.25-4 5a1 1 0 0 1-.726.373L51 49zM27 25h28v2H27zM57 25h2v2h-2zM27 29h28v2H27zM57 29h2v2h-2zM27 33h28v2H27zM57 33h2v2h-2zM27 37h2v2h-2zM31 37h16v2H31zM27 41h2v2h-2zM31 41h13v2H31z" fill="#ffffff" opacity="1" data-original="#ffffff" class=""></path></g><path fill="#649dff" d="M32.506 13.194 29 21.083l3-1 2 2 2.057-6.172" opacity="1" data-original="#e5786e" class=""></path><path fill="#0f67fe" d="M34.348 14.603 32 20.083l2 2 2.057-6.172zM41.494 13.194 45 21.083l-3-1-2 2-2.057-6.172" opacity="1" data-original="#de422c" class=""></path><path fill="#649dff" d="m41.494 13.194-1.842 1.409L42 20.083l3 1z" opacity="1" data-original="#e5786e" class=""></path><circle cx="37" cy="11" r="5" fill="#e7b532" opacity="1" data-original="#e7b532" class=""></circle><circle cx="37" cy="11" r="2.917" fill="#fcea92" opacity="1" data-original="#fcea92" class=""></circle><path fill="#0f67fe" d="M2 48h6v14H2z" opacity="1" data-original="#74868d" class=""></path><path fill="#649dff" d="M4 48h4v12H4z" opacity="1" data-original="#8f9ea2" class=""></path><path d="M50.707 1.293A.997.997 0 0 0 50 1H24a1 1 0 0 0-1 1v42h-1.382l.358-.716A9.75 9.75 0 0 0 23 38.946c0-.773-.183-1.548-.529-2.24A3.068 3.068 0 0 0 19.71 35a3.094 3.094 0 0 0-3.026 2.481 13.431 13.431 0 0 1-2.554 5.579L9.511 49H9v-1a1 1 0 0 0-1-1H2a1 1 0 0 0-1 1v14a1 1 0 0 0 1 1h6a1 1 0 0 0 1-1v-1.462A20.05 20.05 0 0 0 16.472 62H26c1.654 0 3-1.346 3-3 0-.768-.29-1.469-.766-2H62a1 1 0 0 0 1-1V14a.996.996 0 0 0-.293-.707zM51 4.414 59.586 13H51zM7 61H3V49h4zm19-11a1.001 1.001 0 0 1 0 2 1 1 0 1 0 0 2 1.001 1.001 0 0 1 0 2 1 1 0 1 0 0 2 1.001 1.001 0 0 1 0 2h-9.528c-2.569 0-5.137-.569-7.472-1.638V51h1c.309 0 .6-.143.79-.386l4.919-6.325a15.432 15.432 0 0 0 2.937-6.415 1.087 1.087 0 0 1 2.036-.273c.208.416.318.88.318 1.345 0 1.189-.281 2.38-.813 3.443l-1.082 2.163A1 1 0 0 0 20 46h6a1.001 1.001 0 0 1 0 2 1 1 0 1 0 0 2zm3 5c0-.768-.29-1.469-.766-2 .476-.531.766-1.232.766-2s-.29-1.469-.766-2A2.987 2.987 0 0 0 29 47c0-1.654-1.346-3-3-3h-1V3h24v11a1 1 0 0 0 1 1h11v40z" fill="#000000" opacity="1" data-original="#000000" class=""></path><path d="m29.316 21.948 2.414-.804 1.563 1.562a.999.999 0 0 0 1.656-.389l1.804-5.412c.083.003.164.013.247.013s.165-.009.247-.013l1.804 5.412A1.004 1.004 0 0 0 40 23c.262 0 .518-.104.707-.293l1.563-1.562 2.414.804a.998.998 0 0 0 1.23-1.354L42.583 13.1A5.954 5.954 0 0 0 43 10.917c0-3.309-2.691-6-6-6s-6 2.691-6 6c0 .771.151 1.506.417 2.183l-3.331 7.494a1 1 0 0 0 1.23 1.354zm13.85-2.614-.849-.282a.998.998 0 0 0-1.023.241l-.856.855-1.22-3.661a6.011 6.011 0 0 0 2.07-1.38zM37 6.917c2.206 0 4 1.794 4 4s-1.794 4-4 4-4-1.794-4-4 1.794-4 4-4zm-4.287 8.19a5.997 5.997 0 0 0 2.07 1.38l-1.22 3.661-.856-.855a.995.995 0 0 0-1.023-.241l-.849.282zM52 39c-3.86 0-7 3.141-7 7s3.14 7 7 7 7-3.141 7-7-3.14-7-7-7zm0 12c-2.757 0-5-2.243-5-5s2.243-5 5-5 5 2.243 5 5-2.243 5-5 5z" fill="#000000" opacity="1" data-original="#000000" class=""></path><path d="m50.917 46.503-1.21-1.21-1.414 1.414 2 2A.995.995 0 0 0 51 49l.055-.002c.284-.016.548-.151.726-.373l4-5-1.562-1.25zM27 25h28v2H27zM57 25h2v2h-2zM27 29h28v2H27zM57 29h2v2h-2zM27 33h28v2H27zM57 33h2v2h-2zM27 37h2v2h-2zM31 37h16v2H31zM27 41h2v2h-2zM31 41h13v2H31z" fill="#000000" opacity="1" data-original="#000000" class=""></path></g></svg>