<svg xmlns="http://www.w3.org/2000/svg" version="1.1" xmlns:xlink="http://www.w3.org/1999/xlink" width="512" height="512" x="0" y="0" viewBox="0 0 512 512" style="enable-background:new 0 0 512 512" xml:space="preserve" class=""><g><path d="M287.531 7.5a6 6 0 0 0-5.128 2.886L259.19 48.608l-5.253 27.612 13.614 19.294 23.52 4.911 44.627-76.691L339.157 7.5h-51.626z" style="" fill="#fe646f" data-original="#fe646f"></path><path d="m259.19 48.608-24.25 37.76 26.996 44.815 18.496-4.458 6.439-33.127z" style="" fill="#fd4755" data-original="#fd4755"></path><path d="M383.75 9.466 366.036 7.5h-26.879l-52.286 86.098-4.276 16.007 21.617 30.385L385.46 12.504c.808-1.332-.151-3.038-1.71-3.038z" style="" fill="#95c5f9" data-original="#95c5f9" class=""></path><path d="M390.513 7.5H363.51c1.559 0 2.519 1.705 1.709 3.038l-58.997 97.148c-2.426 3.994-8.217 4.011-10.665.031l-8.687-14.119-26.828 44.176 22.552 8.819 21.82 8.533 87.807-144.589c.811-1.332-.149-3.037-1.708-3.037z" style="" fill="#7fb2ea" data-original="#7fb2ea"></path><path d="M345.58 449.154c-59.13 59.14-164.176 56.164-205.514 14.826-1.757-1.757-1.414-5.806-3.194-7.585-1.78-1.78-5.746-1.185-7.416-3.025-15.47-17-26.51-36.59-33.11-57.29-.755-2.358 2.549-4.729 1.911-7.11-.655-2.445-5.249-4.903-5.781-7.37a156.748 156.748 0 0 1 0-66.18c.545-2.533 4.155-5.052 4.829-7.558.625-2.322-1.695-4.633-.959-6.932 6.61-20.7 17.64-40.3 33.11-57.3 1.68-1.84 7.948-.685 9.728-2.465 1.78-1.78-.958-6.465.882-8.135 17-15.47 36.59-26.51 57.29-33.12 2.377-.761 4.767 1.54 7.169.899 2.428-.648 4.868-4.237 7.321-4.769 21.78-4.71 44.39-4.71 66.17 0 2.387.514 4.764 4.085 7.13 4.713 2.471.656 4.928-1.625 7.37-.843 22.94 7.32 38.529 21.335 54.411 41.59 46.599 59.43 59.573 146.734-1.347 207.654z" style="" fill="#d1bff9" data-original="#f2ac7c" class="" opacity="1"></path><path d="M392.756 388.45c-.68 2.56 1.58 5.1.77 7.63-6.61 20.7-17.65 40.3-33.11 57.3-1.68 1.84-5.308 1.51-7.088 3.29-1.78 1.78-1.682 5.64-3.522 7.32-17 15.46-36.59 26.5-57.29 33.11-2.32.74-4.66-1.57-7.01-.94-2.48.67-4.97 4.27-7.48 4.81a156.539 156.539 0 0 1-66.17-.01c-2.23-.48-4.45-4-6.66-4.58-2.63-.69-5.24 1.55-7.84.72-20.75-6.63-40.26-17.6-57.29-33.12 24.99 4.01 49.27-2.3 68.1-7.23l.13-.03c5.79-1.51 11.38-3.25 16.81-5.24 19.9-7.28 37.63-18.15 55.13-35.67 36.45-36.51 48.76-85.09 42.73-134.76a217.7 217.7 0 0 0-3.01-18.17c-.04-.2-.09-.41-.13-.61-2.41-11.38-4.75-20.55-8.72-30.09-3.97-9.54-9.59-19.44-18.59-32.27 20.7 6.61 40.29 17.65 57.29 33.12 1.84 1.67 1.73 6.02 3.51 7.8 1.78 1.78 5.43.97 7.1 2.81 15.47 17 26.51 36.59 33.11 57.29.77 2.39-1.53 4.79-.89 7.21.65 2.41 4.23 4.84 4.76 7.28 4.71 21.79 4.71 44.38 0 66.17-.49 2.3-4.04 4.59-4.64 6.86z" style="" fill="#966fe7" data-original="#e89d6b" class="" opacity="1"></path><path d="M327 275.43c44.607 44.607 28.115 106.633-16.492 151.239-31.757 31.757-76.206 38.878-102.215 30.048a114.109 114.109 0 0 1-44.125-27.445c-44.607-44.607-44.607-116.928 0-161.535 42.699-42.699 110.788-44.521 155.659-5.473 2.005 1.745 5.266 11.259 7.173 13.166z" style="" fill="#966fe7" data-original="#e89d6b" class="" opacity="1"></path><path d="M325.703 267.739a115.994 115.994 0 0 0-5.876-5.474c11.888 56.033 1.448 112.449-39.594 153.541-22.279 22.306-44.93 33.845-71.94 40.912 39.851 13.462 85.652 4.313 117.41-27.445 44.607-44.606 44.607-116.928 0-161.534z" style="" fill="#7d6fd3" data-original="#db8d65" class="" opacity="1"></path><path d="M99.383 7.5c-1.564 0-2.523 1.715-1.703 3.048l93.409 151.853a10.274 10.274 0 0 0 8.782 4.941h49.156v-10.483L159.752 11.71l-9.037-4.21H99.383z" style="" fill="#fd8087" data-original="#fd8087" class=""></path><path d="M293.863 156.8 204.151 12.725a5.999 5.999 0 0 0-5.11-2.856L177.386 7.5h-26.671l98.312 159.842h21.47l18.975-2.738c4.005-.001 6.47-4.381 4.391-7.804z" style="" fill="#abd5ff" data-original="#abd5ff" class=""></path><path d="M299.264 159.538 207.475 10.356a5.999 5.999 0 0 0-5.11-2.856h-27.003a5.999 5.999 0 0 1 5.11 2.856l91.789 149.182c2.079 3.424-.385 7.804-4.391 7.804h27.003c4.005 0 6.47-4.38 4.391-7.804z" style="" fill="#95c5f9" data-original="#95c5f9" class=""></path><path d="M439.511 199.018c-24.502 12.028-25.403 13.553-37.431 38.055-4.946-10.076-9.331-9.429-14.692-15.7-7.025-8.219-15.422-14.188-27.858-20.571-1.453-.746-1.454-2.819-.001-3.565 20.777-10.664 30.282-20.169 40.946-40.946.746-1.453 2.819-1.453 3.565.001 6.26 12.194 12.122 20.504 20.096 27.446 6.363 5.538 5.042 10.208 15.375 15.28z" style="" fill="#fff48f" data-original="#fff48f"></path><path d="M424.136 183.737c-17.18 9.847-26.903 19.864-36.748 37.635 4.711 5.512 8.806 12.034 13.087 20.374.746 1.453 2.819 1.454 3.565.001 10.664-20.776 20.169-30.281 40.944-40.945 1.455-.747 1.456-2.819.001-3.566-8.581-4.406-15.237-8.614-20.849-13.499z" style="" fill="#fee45a" data-original="#fee45a" class=""></path><path d="M159.776 466.215c-21.408 10.509-22.195 11.841-32.704 33.249-4.322-8.803-8.153-8.239-12.836-13.718-6.138-7.181-13.475-12.396-24.34-17.974-1.27-.652-1.27-2.463-.001-3.115 18.153-9.317 26.458-17.622 35.775-35.775.652-1.27 2.463-1.269 3.115 0 5.469 10.655 10.591 17.915 17.558 23.98 5.559 4.842 4.405 8.922 13.433 13.353z" style="" fill="#fff48f" data-original="#fff48f"></path><path d="M146.343 452.864c-15.011 8.604-23.505 17.355-32.108 32.883 4.116 4.816 7.694 10.514 11.434 17.801.652 1.27 2.463 1.27 3.115.001 9.317-18.152 17.622-26.457 35.774-35.775 1.271-.652 1.272-2.463.001-3.116-7.498-3.849-13.313-7.526-18.216-11.794z" style="" fill="#fee45a" data-original="#fee45a" class=""></path><path d="M118.933 202.817c-16.364 8.033-16.966 9.051-24.999 25.415-3.304-6.729-6.232-6.298-9.812-10.486-4.692-5.489-10.3-9.476-18.605-13.739a1.337 1.337 0 0 1 0-2.381c13.876-7.122 20.224-13.47 27.346-27.346.498-.971 1.883-.97 2.381 0 4.181 8.144 8.096 13.694 13.422 18.33 4.248 3.701 3.366 6.82 10.267 10.207z" style="" fill="#fff48f" data-original="#fff48f"></path><path d="M108.665 192.612c-11.474 6.577-17.967 13.266-24.543 25.135 3.147 3.681 5.881 8.037 8.74 13.607a1.337 1.337 0 0 0 2.381 0c7.122-13.876 13.47-20.224 27.345-27.346a1.338 1.338 0 0 0 .001-2.382c-5.731-2.941-10.176-5.752-13.924-9.014z" style="" fill="#fee45a" data-original="#fee45a" class=""></path><path d="M276.614 348.292a1.97 1.97 0 0 1 0-2.697c7.799-8.237 12.594-19.344 12.594-31.555 0-25.334-20.611-45.945-45.946-45.945-22.235 0-39.833 14.257-44.931 36.357-1.551 6.723 2.273 13.722 8.883 15.699 7.334 2.193 14.849-2.309 16.489-9.643 2.32-10.377 9.449-16.329 19.559-16.329 10.952 0 19.862 8.91 19.862 19.861 0 10.948-8.903 19.855-19.848 19.862-5.082.003-9.88 2.724-11.868 7.401-4.048 9.524 2.834 18.683 11.854 18.683 10.952 0 19.862 8.91 19.862 19.862 0 10.951-8.91 19.861-19.929 19.861h-.1c-5.186 0-10.105-2.068-13.86-5.829-3.761-3.767-5.829-8.661-5.835-13.794-.008-7.282-5.671-13.28-12.953-13.28h-.09c-7.161 0-12.991 5.782-13.04 12.954-.081 12.038 4.825 23.901 13.459 32.549 8.687 8.701 20.155 13.484 32.25 13.484l.236-.001c25.334 0 45.946-20.61 45.946-45.945 0-12.211-4.796-23.318-12.594-31.555z" style="" fill="#d1bff9" data-original="#f2ac7c" class="" opacity="1"></path><path d="M273.708 115.272 339.157 7.5M284.155 7.5l-39.219 64.579M394.066 7.5l-51.58 84.94M324.316 122.36l-19.9 32.77M300.018 155.618h10.657c6.148 0 11.132 4.984 11.132 11.132v42.463M168.066 209.894V166.75c0-6.148 4.984-11.132 11.132-11.132h4.611M125.076 55.71 95.806 7.5M143.256 85.63l47.83 76.77c1.87 3.07 5.2 4.94 8.78 4.94h95.01c4 0 6.47-4.38 4.39-7.8l-54.33-87.46-39.22-64.58M153.616 475c60.98 44.14 146.69 38.74 201.62-16.19 26-26 40.9-58.89 44.71-92.8M119.106 440.74c-33.98-46.24-39.25-106.98-15.8-157.71" style="stroke-width:15;stroke-linecap:round;stroke-linejoin:round;stroke-miterlimit:10;" fill="none" stroke="#000000" stroke-width="15" stroke-linecap="round" stroke-linejoin="round" stroke-miterlimit="10" data-original="#000000" class=""></path><path d="M121.496 253.11c4-5.17 8.39-10.16 13.14-14.91 60.91-60.92 159.69-60.92 220.6 0 26 26 40.91 58.9 44.71 92.81" style="stroke-width:15;stroke-linecap:round;stroke-linejoin:round;stroke-miterlimit:10;" fill="none" stroke="#000000" stroke-width="15" stroke-linecap="round" stroke-linejoin="round" stroke-miterlimit="10" data-original="#000000" class=""></path><circle cx="244.936" cy="348.506" r="114.222" style="stroke-width:15;stroke-linecap:round;stroke-linejoin:round;stroke-miterlimit:10;" fill="none" stroke="#000000" stroke-width="15" stroke-linecap="round" stroke-linejoin="round" stroke-miterlimit="10" data-original="#000000" class=""></circle><path d="m135.655 239.224 27.474 27.475M95.655 308.506l37.531 10.056M95.655 388.506l37.531-10.057M143.934 449.508l19.195-19.195M204.936 497.787l10.057-37.53M284.936 497.787l-10.056-37.53M354.218 457.787l-27.475-27.474M394.218 388.506l-37.531-10.057M394.218 308.506l-37.531 10.056M354.218 239.224l-27.475 27.475M284.936 199.225l-10.056 37.53M204.936 199.225l10.057 37.53M123.317 202.817c-15.493 7.606-21.659 13.771-29.264 29.264-7.606-15.493-13.771-21.659-29.264-29.264 15.493-7.606 21.659-13.771 29.264-29.264 7.606 15.493 13.771 21.659 29.264 29.264zM246.936 165.943 150.715 7.5M447.212 198.584c-24.502 12.028-34.253 21.779-46.281 46.281-12.028-24.502-21.779-34.253-46.281-46.281 24.502-12.028 34.253-21.779 46.281-46.281 12.028 24.502 21.779 34.253 46.281 46.281zM165.511 466.215c-20.268 9.95-28.335 18.016-38.285 38.285-9.95-20.268-18.016-28.335-38.285-38.285 20.268-9.95 28.335-18.016 38.285-38.285 9.951 20.269 18.017 28.335 38.285 38.285zM275.275 346.406c8.397-8.174 13.627-19.586 13.627-32.202 0-24.794-20.172-44.965-44.966-44.965-21.881 0-39.172 14.107-44.054 35.939-1.538 6.879 2.792 13.703 9.672 15.241 6.884 1.54 13.703-2.792 15.241-9.672 2.271-10.156 9.248-15.981 19.141-15.981 10.719 0 19.439 8.72 19.439 19.438 0 10.719-8.72 19.439-19.439 19.439-7.049 0-12.764 5.715-12.764 12.764 0 7.049 5.715 12.764 12.764 12.764 10.719 0 19.439 8.72 19.439 19.439 0 10.717-8.72 19.438-19.504 19.438h-.098c-5.075 0-9.89-2.023-13.565-5.705-3.717-3.723-5.744-8.569-5.71-13.647.047-7.05-5.629-12.802-12.678-12.85h-.088c-7.008 0-12.714 5.659-12.762 12.678-.079 11.781 4.722 23.391 13.172 31.855 8.502 8.515 19.725 13.197 31.562 13.197l.231-.001c24.794 0 44.966-20.171 44.966-44.965.001-12.618-5.229-24.03-13.626-32.204z" style="stroke-width:15;stroke-linecap:round;stroke-linejoin:round;stroke-miterlimit:10;" fill="none" stroke="#000000" stroke-width="15" stroke-linecap="round" stroke-linejoin="round" stroke-miterlimit="10" data-original="#000000" class=""></path></g></svg>