<svg id="Icons" height="512" viewBox="0 0 60 60" width="512" xmlns="http://www.w3.org/2000/svg"><path d="m59 13v34a4 4 0 0 1 -4 4h-50a4 4 0 0 1 -4-4v-34l1-1h56z" fill="#e1efff"/><path d="m59 9v4h-58v-4a4 4 0 0 1 4-4h50a4 4 0 0 1 4 4z" fill="#d14c7c"/><g fill="#e1efff"><rect height="8" rx="2" width="4" x="8" y="1"/><rect height="8" rx="2" width="4" x="18" y="1"/><rect height="8" rx="2" width="4" x="28" y="1"/><rect height="8" rx="2" width="4" x="38" y="1"/><rect height="8" rx="2" width="4" x="48" y="1"/></g><circle cx="30" cy="40" fill="#3979c6" r="19"/><path d="m31 47h-2a1 1 0 0 1 -1-1v-3a2 2 0 0 1 1.987-2 6 6 0 1 0 -5.987-6 2 2 0 0 1 -2 2 2 2 0 0 1 -2-2 10 10 0 1 1 12 9.8v1.2a1 1 0 0 1 -1 1z" fill="#fff"/><circle cx="30" cy="53" fill="#fff" r="2"/><path d="m55 4h-2v-1a3 3 0 0 0 -6 0v1h-4v-1a3 3 0 0 0 -6 0v1h-4v-1a3 3 0 0 0 -6 0v1h-4v-1a3 3 0 0 0 -6 0v1h-4v-1a3 3 0 0 0 -6 0v1h-2a5.006 5.006 0 0 0 -5 5v38a5.006 5.006 0 0 0 5 5h5a1 1 0 0 0 0-2h-5a3 3 0 0 1 -3-3v-33h56v33a3 3 0 0 1 -3 3h-7.706a20.15 20.15 0 1 0 -1.332 2h9.038a5.006 5.006 0 0 0 5-5v-38a5.006 5.006 0 0 0 -5-5zm-25 54a18 18 0 1 1 18-18 18.021 18.021 0 0 1 -18 18zm19-55a1 1 0 0 1 2 0v4a1 1 0 0 1 -2 0zm-10 0a1 1 0 0 1 2 0v4a1 1 0 0 1 -2 0zm-10 0a1 1 0 0 1 2 0v4a1 1 0 0 1 -2 0zm-10 0a1 1 0 0 1 2 0v4a1 1 0 0 1 -2 0zm-10 0a1 1 0 0 1 2 0v4a1 1 0 0 1 -2 0zm-7 9v-3a3 3 0 0 1 3-3h2v1a3 3 0 0 0 6 0v-1h4v1a3 3 0 0 0 6 0v-1h4v1a3 3 0 0 0 6 0v-1h4v1a3 3 0 0 0 6 0v-1h4v1a3 3 0 0 0 6 0v-1h2a3 3 0 0 1 3 3v3z" fill="#373737"/><path d="m32.083 24.193a11.017 11.017 0 0 0 -13.083 10.807 3 3 0 0 0 6 0 4.985 4.985 0 0 1 1.859-3.888 5.049 5.049 0 0 1 4.242-.994 4.983 4.983 0 0 1 3.77 3.73 5.041 5.041 0 0 1 -.972 4.278 4.982 4.982 0 0 1 -3.899 1.874h-.019a2.95 2.95 0 0 0 -2.094.872 2.986 2.986 0 0 0 -.887 2.128v3a2 2 0 0 0 2 2h2a2 2 0 0 0 2-2v-.415a11 11 0 0 0 -.917-21.392zm-.283 19.626a1 1 0 0 0 -.8.98v1.201h-2v-3a1 1 0 0 1 .3-.712.962.962 0 0 1 .681-.288h.019a7 7 0 0 0 1.518-13.839 7.045 7.045 0 0 0 -5.915 1.4 6.972 6.972 0 0 0 -2.603 5.439 1 1 0 0 1 -2 0 9 9 0 1 1 10.8 8.819z" fill="#373737"/><path d="m30 50a3 3 0 1 0 3 3 3 3 0 0 0 -3-3zm0 4a1 1 0 1 1 1-1 1 1 0 0 1 -1 1z" fill="#373737"/></svg>