<svg xmlns="http://www.w3.org/2000/svg" version="1.1" xmlns:xlink="http://www.w3.org/1999/xlink"  width="512" height="512" x="0" y="0" viewBox="0 0 512 512" style="enable-background:new 0 0 512 512" xml:space="preserve" class=""><g><g fill-rule="evenodd" clip-rule="evenodd"><path fill="#bfe2ff" d="M139.664 387.756c72.567 0 131.756-59.188 131.756-131.756s-59.188-131.756-131.756-131.756C67.124 124.244 7.936 183.433 7.936 256s59.188 131.756 131.728 131.756z" data-original="#bfe2ff" class=""></path><path fill="#67b9fb" d="M139.664 124.244c72.767 0 131.756 58.989 131.756 131.756s-58.989 131.756-131.756 131.756c-4.082 0-8.135-.197-12.133-.566 67.097-6.123 119.625-62.505 119.625-131.19 0-68.655-52.528-125.066-119.625-131.189 3.998-.37 8.051-.567 12.133-.567z" data-original="#96d0ff" class="" opacity="1"></path><path fill="#22a6fe" d="M139.664 275.701c10.855 0 19.729-8.844 19.729-19.701s-8.873-19.701-19.729-19.701c-10.828 0-19.701 8.844-19.701 19.701s8.873 19.701 19.701 19.701z" data-original="#22a6fe" class=""></path><path fill="#f9f7f8" d="m398.584 130.791-14.881-14.91c-3.316-3.656-3.658-7.312 0-10.969l14.881-14.911V76.423c0-4.281 3.486-7.768 7.768-7.768h89.973c4.281 0 7.768 3.486 7.768 7.768v67.946c0 4.281-3.486 7.768-7.768 7.768h-89.973c-4.281 0-7.768-3.486-7.768-7.768zm7.768 83.482h89.973c4.281 0 7.768 3.486 7.768 7.767v67.949c0 4.252-3.486 7.766-7.768 7.766h-89.973c-4.281 0-7.768-3.514-7.768-7.766v-13.608L383.703 261.5c-3.346-3.828-3.629-7.484 0-10.971l14.881-14.91V222.04c0-4.281 3.486-7.767 7.768-7.767zm0 145.59h89.973c4.281 0 7.768 3.516 7.768 7.768v67.946c0 4.281-3.486 7.768-7.768 7.768h-89.973c-4.281 0-7.768-3.486-7.768-7.768v-13.578l-14.881-14.882c-3.402-3.742-3.432-7.428 0-10.998l14.881-14.883v-13.605c0-4.252 3.486-7.768 7.768-7.768z" data-original="#f9f7f8" class=""></path><path fill="#ebe8fa" d="M472.06 68.655h24.265c4.281 0 7.768 3.486 7.768 7.768v67.946c0 4.281-3.486 7.768-7.768 7.768H472.06c4.252 0 7.768-3.486 7.768-7.768V76.423c0-4.281-3.517-7.768-7.768-7.768zm0 145.618h24.265c4.281 0 7.768 3.486 7.768 7.767v67.949c0 4.252-3.486 7.766-7.768 7.766H472.06c4.252 0 7.768-3.514 7.768-7.766V222.04c0-4.281-3.517-7.767-7.768-7.767zm0 145.59h24.265c4.281 0 7.768 3.516 7.768 7.768v67.946c0 4.281-3.486 7.768-7.768 7.768H472.06c4.252 0 7.768-3.486 7.768-7.768v-67.946c0-4.252-3.517-7.768-7.768-7.768z" data-original="#ebe8fa" class=""></path><path fill="#67b9fb" d="M324.825 86.116c13.381 0 24.266 10.886 24.266 24.294 0 13.381-10.885 24.266-24.266 24.266-13.408 0-24.264-10.885-24.264-24.266 0-13.408 10.856-24.294 24.264-24.294zm0 291.237c13.381 0 24.266 10.856 24.266 24.264s-10.885 24.267-24.266 24.267c-13.408 0-24.264-10.858-24.264-24.267 0-13.408 10.856-24.264 24.264-24.264zm0-145.617c13.381 0 24.266 10.855 24.266 24.264s-10.885 24.264-24.266 24.264c-13.408 0-24.264-10.855-24.264-24.264s10.856-24.264 24.264-24.264z" data-original="#f37c7c" class="" opacity="1"></path></g><path d="M262.945 272.016c.51-4.082 4.252-6.973 8.334-6.463 4.08.51 7 4.252 6.463 8.334-4.424 34.442-21.402 64.942-46.234 86.77-24.52 21.545-56.665 34.611-91.844 34.611-38.437 0-73.249-15.59-98.448-40.791C16.014 329.276.424 294.468.424 256c0-38.439 15.59-73.249 40.792-98.449 25.199-25.199 60.011-40.791 98.448-40.791 35.179 0 67.323 13.068 91.844 34.611 24.832 21.8 41.811 52.3 46.234 86.742.537 4.109-2.383 7.824-6.463 8.361a7.463 7.463 0 0 1-8.334-6.49c-3.969-30.7-19.135-57.913-41.274-77.358-21.855-19.22-50.57-30.87-82.007-30.87-34.299 0-65.368 13.918-87.847 36.397S15.42 221.7 15.42 256c0 34.329 13.918 65.368 36.398 87.874 22.478 22.482 53.548 36.37 87.847 36.37 31.437 0 60.151-11.65 82.007-30.841 22.139-19.474 37.305-46.658 41.273-77.387zM317.314 7.512A7.507 7.507 0 0 1 324.826 0c4.139 0 7.484 3.373 7.484 7.512v72.001a31.975 31.975 0 0 1 14.967 8.418 31.658 31.658 0 0 1 9.298 22.479c0 8.76-3.543 16.697-9.298 22.451-4.055 4.053-9.213 7.029-14.967 8.418v83.852c5.754 1.389 10.912 4.365 14.967 8.418 5.755 5.756 9.298 13.691 9.298 22.451a31.654 31.654 0 0 1-9.298 22.478 31.683 31.683 0 0 1-14.967 8.391v83.879a31.7 31.7 0 0 1 14.967 8.391 31.655 31.655 0 0 1 9.298 22.478c0 8.76-3.543 16.698-9.298 22.452-4.055 4.053-9.213 7.029-14.967 8.418v72.03a7.476 7.476 0 0 1-7.484 7.482c-4.166 0-7.512-3.344-7.512-7.482v-72.03c-5.754-1.389-10.912-4.365-14.967-8.418-5.754-5.754-9.297-13.692-9.297-22.452a31.657 31.657 0 0 1 9.297-22.478 31.7 31.7 0 0 1 14.967-8.391v-83.879a31.683 31.683 0 0 1-14.967-8.391A31.659 31.659 0 0 1 293.05 256c0-8.76 3.543-16.695 9.297-22.451 4.055-4.053 9.213-7.029 14.967-8.418v-83.852c-5.754-1.389-10.912-4.365-14.967-8.418-5.754-5.754-9.297-13.691-9.297-22.451a31.66 31.66 0 0 1 9.297-22.479 31.975 31.975 0 0 1 14.967-8.418zM496.58 418.599c0-4.14 3.373-7.485 7.512-7.485s7.484 3.346 7.484 7.485v24.746c0 4.139-3.346 7.512-7.484 7.512H398.584c-4.139 0-7.482-3.373-7.482-7.512v-18.227l-18.199-18.2c-2.92-2.92-2.92-7.682 0-10.602l18.199-18.197v-18.256a7.476 7.476 0 0 1 7.482-7.484h105.508a7.477 7.477 0 0 1 7.484 7.484v24.775c0 4.139-3.346 7.482-7.484 7.482s-7.512-3.344-7.512-7.482v-17.264h-90.484v13.861c0 1.9-.736 3.826-2.211 5.301l-15.08 15.08 15.053 15.053a7.402 7.402 0 0 1 2.238 5.329v13.861h90.484zm0-145.621c0-4.137 3.373-7.482 7.512-7.482s7.484 3.346 7.484 7.482v24.776a7.477 7.477 0 0 1-7.484 7.484H398.584a7.476 7.476 0 0 1-7.482-7.484V279.5l-18.199-18.199c-2.92-2.92-2.92-7.682 0-10.602l18.199-18.17v-18.257c0-4.139 3.344-7.512 7.482-7.512h105.508c4.139 0 7.484 3.373 7.484 7.512v24.747c0 4.139-3.346 7.514-7.484 7.514s-7.512-3.375-7.512-7.514v-17.263h-90.484v13.862a7.397 7.397 0 0 1-2.211 5.301L388.805 256l15.053 15.053a7.448 7.448 0 0 1 2.238 5.328v13.862h90.484zm0-145.587c0-4.139 3.373-7.512 7.512-7.512s7.484 3.373 7.484 7.512v24.746c0 4.139-3.346 7.512-7.484 7.512H398.584c-4.139 0-7.482-3.373-7.482-7.512v-18.256l-18.199-18.17a7.543 7.543 0 0 1 0-10.629l18.199-18.171V68.655c0-4.139 3.344-7.512 7.482-7.512h105.508c4.139 0 7.484 3.373 7.484 7.512v24.746c0 4.14-3.346 7.513-7.484 7.513s-7.512-3.373-7.512-7.513V76.167h-90.484v13.834a7.505 7.505 0 0 1-2.211 5.328l-15.08 15.081 15.053 15.023a7.469 7.469 0 0 1 2.238 5.357v13.834h90.484zM336.675 98.533a16.71 16.71 0 0 0-11.85-4.905 16.726 16.726 0 0 0-11.877 4.905 16.73 16.73 0 0 0-4.904 11.877c0 4.621 1.871 8.816 4.904 11.85a16.73 16.73 0 0 0 11.877 4.904c4.621 0 8.816-1.871 11.85-4.904a16.713 16.713 0 0 0 4.904-11.85 16.73 16.73 0 0 0-4.904-11.877zm0 291.237c-3.033-3.033-7.229-4.934-11.85-4.934-4.648 0-8.844 1.9-11.877 4.934s-4.904 7.228-4.904 11.848c0 4.621 1.871 8.816 4.904 11.85s7.229 4.905 11.877 4.905c4.621 0 8.816-1.872 11.85-4.905s4.904-7.228 4.904-11.85a16.71 16.71 0 0 0-4.904-11.848zm0-145.62a16.711 16.711 0 0 0-11.85-4.902c-4.648 0-8.844 1.869-11.877 4.902s-4.904 7.229-4.904 11.85c0 4.648 1.871 8.816 4.904 11.877a16.73 16.73 0 0 0 11.877 4.904c4.621 0 8.816-1.871 11.85-4.904 3.033-3.061 4.904-7.229 4.904-11.877 0-4.621-1.871-8.816-4.904-11.85zM132.18 191.171c0-4.139 3.346-7.512 7.484-7.512a7.507 7.507 0 0 1 7.512 7.512v38.665a27.269 27.269 0 0 1 11.734 6.945c4.934 4.904 7.968 11.707 7.968 19.219s-3.033 14.315-7.968 19.248c-4.932 4.902-11.734 7.965-19.246 7.965-7.342 0-14.004-2.92-18.908-7.654l-22.932 13.238c-3.573 2.042-8.136.823-10.177-2.75-2.07-3.6-.822-8.164 2.75-10.205l22.876-13.209a28.33 28.33 0 0 1-.793-6.633c0-7.512 3.031-14.314 7.965-19.219a27.12 27.12 0 0 1 11.734-6.945v-38.665zm16.129 56.212a12.187 12.187 0 0 0-8.645-3.572c-3.346 0-6.406 1.361-8.617 3.572s-3.572 5.244-3.572 8.617a12.195 12.195 0 0 0 12.189 12.217A12.194 12.194 0 0 0 151.881 256c0-3.373-1.361-6.406-3.572-8.617zm-16.129-93.998c0-4.139 3.346-7.514 7.484-7.514a7.509 7.509 0 0 1 7.512 7.514v8.646a7.489 7.489 0 0 1-7.512 7.512c-4.139 0-7.484-3.344-7.484-7.512zM94.847 348.638c-2.068 3.571-6.66 4.79-10.232 2.722-3.572-2.069-4.791-6.663-2.721-10.233l4.309-7.484c2.068-3.572 6.66-4.791 10.233-2.721 3.572 2.068 4.791 6.633 2.721 10.232zm98.279-170.309c-2.041 3.602-6.606 4.82-10.176 2.779-3.572-2.07-4.818-6.635-2.75-10.205l4.309-7.484a7.48 7.48 0 0 1 10.205-2.777c3.572 2.068 4.818 6.633 2.75 10.205zM54.538 313.8a7.465 7.465 0 0 1-10.205-2.723c-2.068-3.57-.85-8.162 2.723-10.232l7.482-4.336a7.478 7.478 0 0 1 10.232 2.748 7.462 7.462 0 0 1-2.721 10.205zm170.28-98.309c-3.573 2.07-8.165.852-10.233-2.721-2.07-3.572-.852-8.164 2.721-10.232l7.513-4.309a7.462 7.462 0 0 1 10.205 2.721 7.466 7.466 0 0 1-2.721 10.205zm-187.77 48.021c-4.139 0-7.513-3.373-7.513-7.512s3.374-7.484 7.513-7.484h8.674c4.139 0 7.484 3.346 7.484 7.484s-3.346 7.512-7.484 7.512zm196.587 0c-4.139 0-7.484-3.373-7.484-7.512s3.346-7.484 7.484-7.484h8.674c4.139 0 7.482 3.346 7.482 7.484s-3.344 7.512-7.482 7.512zM47.056 211.155a7.465 7.465 0 0 1-2.723-10.205 7.463 7.463 0 0 1 10.205-2.721l7.512 4.309c3.572 2.068 4.791 6.66 2.721 10.232-2.068 3.572-6.66 4.791-10.232 2.721zm170.25 98.307a7.463 7.463 0 0 1-2.721-10.205 7.479 7.479 0 0 1 10.233-2.748l7.484 4.336c3.57 2.07 4.789 6.662 2.721 10.232a7.465 7.465 0 0 1-10.205 2.723zM81.894 170.874c-2.07-3.57-.852-8.164 2.721-10.232a7.477 7.477 0 0 1 10.232 2.75l4.31 7.482c2.07 3.572.851 8.137-2.721 10.234a7.481 7.481 0 0 1-10.233-2.75zM180.2 341.126c-2.068-3.602-.822-8.164 2.75-10.205 3.57-2.07 8.135-.822 10.176 2.75l4.338 7.482c2.068 3.572.822 8.164-2.75 10.206a7.497 7.497 0 0 1-10.205-2.751zm-48.02 8.844c0-4.139 3.346-7.512 7.484-7.512a7.507 7.507 0 0 1 7.512 7.512v8.675c0 4.139-3.346 7.483-7.512 7.483a7.476 7.476 0 0 1-7.484-7.483z" fill="#000000" data-original="#000000" class=""></path></g></svg>