<svg height="512" viewBox="0 0 64 64" width="512" xmlns="http://www.w3.org/2000/svg"><g id="Flat"><path d="m34.89 53-.27 5.18a2.012 2.012 0 0 1 -1.62.82h-28a2.006 2.006 0 0 1 -2-2v-48a2.006 2.006 0 0 1 2-2h4v44a2.006 2.006 0 0 0 2 2z" fill="#f2f2f2"/><path d="m10.929 53a1.929 1.929 0 0 1 -1.929-1.929v-44.071h-1v44.635a2.365 2.365 0 0 0 2.365 2.365h24.635v-1z" fill="#e0e0e0"/><path d="m45 15v38h-34a2.006 2.006 0 0 1 -2-2v-46a2.006 2.006 0 0 1 2-2h22z" fill="#f2f2f2"/><path d="m44 27a16.89 16.89 0 0 0 -7.449 1.737l-9.551-1.737 1.629 9.774a16.99 16.99 0 1 0 15.371-9.774z" fill="#f9c032"/><g fill="#d8d8d8"><path d="m18 20h-5a1 1 0 0 1 0-2h5a1 1 0 0 1 0 2z"/><path d="m22 24h-9a1 1 0 0 1 0-2h9a1 1 0 0 1 0 2z"/><path d="m23 28h-10a1 1 0 0 1 0-2h10a1 1 0 0 1 0 2z"/><path d="m23 32h-10a1 1 0 0 1 0-2h10a1 1 0 0 1 0 2z"/><path d="m24 36h-11a1 1 0 0 1 0-2h11a1 1 0 0 1 0 2z"/><path d="m24 40h-11a1 1 0 0 1 0-2h11a1 1 0 0 1 0 2z"/><path d="m23 44h-10a1 1 0 0 1 0-2h10a1 1 0 0 1 0 2z"/><path d="m23 48h-10a1 1 0 0 1 0-2h10a1 1 0 0 1 0 2z"/><path d="m41 20h-19a1 1 0 0 1 0-2h19a1 1 0 0 1 0 2z"/><path d="m41 24h-15a1 1 0 0 1 0-2h15a1 1 0 0 1 0 2z"/></g><path d="m45 15h-10a2 2 0 0 1 -2-2v-10z" fill="#e0e0e0"/><path d="m51.778 48.95-4.95-4.95 4.95-4.95a2 2 0 1 0 -2.828-2.828l-4.95 4.95-4.95-4.95a2 2 0 1 0 -2.828 2.828l4.95 4.95-4.95 4.95a2 2 0 1 0 2.828 2.828l4.95-4.95 4.95 4.95a2 2 0 1 0 2.828-2.828z" fill="#c33"/><path d="m45 26v1.03c-.33-.02-.66-.03-1-.03a16.9 16.9 0 0 0 -7.45 1.74l-9.21-1.68-.17-.03-.17-1.03 10.11 1.84a17.882 17.882 0 0 1 7.89-1.84z" fill="#ddd"/></g><g id="Outline"><path d="m46 26.118v-11.118a1.009 1.009 0 0 0 -.293-.707l-12-12a1.009 1.009 0 0 0 -.707-.293h-22a3 3 0 0 0 -3 3v1h-3a3 3 0 0 0 -3 3v48a3 3 0 0 0 3 3h28a3 3 0 0 0 1.751-.587 17.987 17.987 0 1 0 11.249-33.295zm-12-20.704 8.586 8.586h-7.586a1 1 0 0 1 -1-1zm-24-.414a1 1 0 0 1 1-1h21v9a3 3 0 0 0 3 3h9v10a17.789 17.789 0 0 0 -7.588 1.7l-9.233-1.679a1 1 0 0 0 -1.165 1.149l1.578 9.47a17.816 17.816 0 0 0 .308 15.36h-16.9a1 1 0 0 1 -1-1zm-5 53a1 1 0 0 1 -1-1v-48a1 1 0 0 1 1-1h3v43a3 3 0 0 0 3 3h18.044a18.141 18.141 0 0 0 3.667 4zm39 2a16.019 16.019 0 0 1 -16-16 15.835 15.835 0 0 1 1.534-6.8 1 1 0 0 0 .081-.591l-1.395-8.371 8.153 1.482a1 1 0 0 0 .618-.085 15.826 15.826 0 0 1 7.009-1.635 16 16 0 0 1 0 32z"/><path d="m13 20h5a1 1 0 0 0 0-2h-5a1 1 0 0 0 0 2z"/><path d="m13 24h9a1 1 0 0 0 0-2h-9a1 1 0 0 0 0 2z"/><path d="m13 28h10a1 1 0 0 0 0-2h-10a1 1 0 0 0 0 2z"/><path d="m13 32h10a1 1 0 0 0 0-2h-10a1 1 0 0 0 0 2z"/><path d="m13 36h11a1 1 0 0 0 0-2h-11a1 1 0 0 0 0 2z"/><path d="m13 40h11a1 1 0 0 0 0-2h-11a1 1 0 0 0 0 2z"/><path d="m13 44h10a1 1 0 0 0 0-2h-10a1 1 0 0 0 0 2z"/><path d="m13 48h10a1 1 0 0 0 0-2h-10a1 1 0 0 0 0 2z"/><path d="m22 20h19a1 1 0 0 0 0-2h-19a1 1 0 0 0 0 2z"/><path d="m41 22h-15a1 1 0 0 0 0 2h15a1 1 0 0 0 0-2z"/><path d="m52.485 48.243-4.242-4.243 4.243-4.243a3 3 0 1 0 -4.243-4.242l-4.243 4.242-4.243-4.243a3 3 0 1 0 -4.242 4.243l4.242 4.243-4.243 4.243a3 3 0 0 0 4.243 4.242l4.243-4.242 4.243 4.243a3 3 0 0 0 4.243-4.243zm-1.414 2.828a1 1 0 0 1 -1.414 0l-4.95-4.949a1 1 0 0 0 -1.414 0l-4.95 4.949a1 1 0 0 1 -1.414-1.414l4.949-4.95a1 1 0 0 0 0-1.414l-4.949-4.95a1 1 0 0 1 1.414-1.414l4.95 4.949a1 1 0 0 0 1.414 0l4.95-4.949a1 1 0 0 1 1.414 1.414l-4.949 4.95a1 1 0 0 0 0 1.414l4.949 4.95a1 1 0 0 1 0 1.414z"/></g></svg>